<?xml version="1.0" encoding="utf-8"?>
<!-- Generator: Adobe Illustrator 18.0.0, SVG Export Plug-In . SVG Version: 6.00 Build 0)  -->
<!DOCTYPE svg PUBLIC "-//W3C//DTD SVG 1.1//EN" "http://www.w3.org/Graphics/SVG/1.1/DTD/svg11.dtd">
<svg version="1.1" id="Layer_1" xmlns="http://www.w3.org/2000/svg" xmlns:xlink="http://www.w3.org/1999/xlink" x="0px" y="0px"
	 viewBox="0 0 1263.898 697.497" enable-background="new 0 0 1263.898 697.497" xml:space="preserve">
<path fill="#50D8B8" d="M528.946,276.993c0.886,4.675,1.771,9.35,2.744,14.484c1.146-0.546,1.81-0.862,2.472-1.178
	c0.097,0.121,0.299,0.266,0.278,0.359c-1.297,5.609,3.994,9.219,4.324,14.352c0.97,15.05,2.726,30.093,2.777,45.144
	c0.039,11.424-2.394,22.777-9.998,32.117c-4.097,5.032-9.205,8.455-15.909,9.019c-11.422,0.961-22.294-0.362-31.598-7.811
	c-8.044-6.441-12.872-15.176-16.079-24.671c-2.05-6.068-2.806-12.572-4.173-18.874c-0.201-0.925-0.572-1.812-1.209-3.784
	c-1.647,2.144-2.902,3.534-3.884,5.096c-7.134,11.348-15.503,21.512-26.439,29.517c-9.465,6.928-19.894,8.12-30.851,5.775
	c-3.224-0.69-4.941-0.241-6.646,2.33c-8.889,13.407-20.58,23.401-35.857,28.856c-22.217,7.933-49.999,3.943-66.727-14.519
	c-1.209-1.334-2.475-2.617-4.357-4.601c-1.88,3.426-3.467,6.241-4.983,9.094c-4.561,8.586-11.226,13.657-21.391,13.623
	c-6.672-0.022-11.24-3.4-15.183-8.195c-1.224-1.489-2.432-2.991-3.912-4.812c-2.674,5.826-4.76,11.207-7.52,16.216
	c-6.371,11.56-19.249,14.287-30.234,7.103c-10.597-6.93-15.238-17.134-17.144-29.055c-0.39-2.438-0.599-4.905-1.016-8.41
	c-1.885,1.311-3.345,1.946-4.27,3.035c-4.623,5.445-8.974,11.127-13.702,16.477c-2.005,2.269-4.546,4.17-7.121,5.8
	c-2.743,1.736-3.79,5.546-1.623,8.609c1.235,1.745,2.804,3.304,4.424,4.717c18.009,15.715,30.265,35.47,40.45,56.79
	c9.241,19.343,17.271,39.161,23.557,59.626c5.672,18.465,9.791,37.296,8.807,56.825c-0.695,13.778-0.831,27.654-2.671,41.29
	c-2.849,21.106-12.275,38.883-29.138,52.679c-14.59,11.936-36.402,8.96-47.332-4.46c-10.66-13.089-17.254-27.9-22.041-43.696
	c-2.983-9.844-5.521-19.87-7.485-29.965c-2.714-13.947-4.641-28.046-7.02-42.06c-1.553-9.148-3.401-18.247-4.944-27.397
	c-0.939-5.565-1.663-11.173-2.282-16.784c-1.567-14.205-3.026-28.422-4.518-42.635c-1.336-12.732-2.646-25.466-4.004-38.195
	c-0.1-0.935-0.496-1.839-1.06-3.844c-1.67,2.201-2.925,3.595-3.89,5.167c-11.21,18.244-21.447,37.175-33.816,54.593
	C54.471,518.032,40.5,534.206,26.361,550.06c-5.828,6.535-14.011,10.98-21.184,16.293c-0.808,0.598-2.016,0.656-3.039,0.965
	c-0.373-0.273-0.746-0.545-1.119-0.818c2.543-5.644,4.564-11.599,7.718-16.878c15.767-26.387,32.117-52.428,47.707-78.918
	c14.66-24.91,28.774-50.147,42.729-75.46c1.95-3.537,2.295-8.339,2.232-12.538c-0.235-15.65-1.562-31.302-1.31-46.935
	c0.246-15.292,1.687-30.58,3.028-45.833c1.252-14.24,2.695-28.484,4.744-42.627c1.544-10.657,3.539-21.338,6.475-31.685
	c4.569-16.096,9.701-32.062,15.34-47.817c6.751-18.86,15.902-36.578,28.245-52.484c6.153-7.929,13.814-13.782,23.63-16.635
	c9.08-2.639,26.191,3.7,30.328,12.034c1.635,3.294,2.068,7.402,2.205,11.169c0.217,5.952,0.199,11.992-0.579,17.882
	c-1.279,9.689-3.084,19.318-4.966,28.914c-2.074,10.575-4.483,21.085-6.751,31.622c-2.372,11.021-4.579,22.081-7.17,33.05
	c-2.818,11.93-5.329,23.992-9.133,35.618c-13.572,41.484-34.208,79.84-53.701,118.671c-4.007,7.982-5.907,15.786-3.709,24.496
	c0.402,1.594,0.339,3.304,0.491,4.961c1.262,13.741,2.511,27.483,3.792,41.222c0.664,7.117,1.374,14.231,2.081,21.344
	c0.724,7.276,1.721,14.536,2.131,21.829c0.361,6.401,0.075,12.839,0.075,18.022c1.131,3.814,1.99,6.714,2.85,9.614
	c-0.443,0.141-0.887,0.283-1.33,0.424c-0.414-1.254-0.827-2.508-1.445-4.38c-2.381,2.79-1.829,5.65-0.198,6.999
	c4.573,3.779,4.291,8.804,4.365,13.72c0.065,4.349,0.471,8.669,0.667,12.963c0.271,5.938,0.689,11.68,2.371,17.396
	c0.657,2.232,0.803,4.785,0.497,7.101c-1.03,7.771,2.189,14.878,3.281,22.298c2.224,15.114,8.275,29.02,15.753,42.196
	c3.987,7.026,8.782,13.671,13.854,19.971c2.708,3.365,6.779,5.632,11.018,9.02c1.593-2.715,2.617-4.632,3.801-6.442
	c2.268-3.466,4.4-7.055,6.994-10.264c6.199-7.667,8.805-16.731,10.283-26.141c2.75-17.511,3.556-35.259,1.892-52.812
	c-1.179-12.436-4.368-24.845-8.029-36.849c-7.183-23.554-17.264-45.983-28.788-67.754c-7.005-13.232-16.065-24.819-27.51-34.468
	c-9.519-8.025-13.086-18.236-11.207-30.306c1.344-8.632,6.155-15.777,11.514-22.349c12.921-15.847,26.328-31.298,39.196-47.187
	c8.677-10.714,16.732-21.929,25.151-32.855c2.182-2.832,4.682-5.419,7.454-8.598c3.563,3.184,6.486,5.946,9.589,8.489
	c1.074,0.88,2.966,2.009,3.822,1.609c1.211-0.567,2.207-2.344,2.578-3.787c0.616-2.398,0.372-5.019,1.013-7.406
	c0.977-3.634,2.401-7.148,3.708-10.924c4.44,1.256,8.328,2.419,12.252,3.439c1.855,0.482,3.771,0.874,5.678,0.986
	c4.318,0.255,5.832,1.605,5.33,5.879c-1.069,9.088-2.82,18.114-3.504,27.224c-1.083,14.422-2.018,28.891-2.042,43.342
	c-0.014,8.54,5.094,15.499,10.187,22.054c0.405-0.063,0.809-0.125,1.214-0.188c-0.167-1.328,0.046-2.873-0.567-3.946
	c-2.408-4.211-3.001-8.061-1.218-13.022c4.62-12.86,8.43-26.012,12.47-39.077c1.069-3.457,1.8-7.018,2.802-10.993
	c3.588-2.864,6.566-6.359,6.314-12.243c-0.122-2.854,1.556-6.261,3.434-8.604c2.322-2.896,5.699-4.946,8.788-7.5
	c0.073-1.114,0.157-2.403,0.231-3.54c1.956-1.133,3.678-2.131,5.695-3.3c-3.673-6.533,2.759-8.826,5.672-12.203
	c2.576-2.985,6.747-4.594,10.213-6.81c0.807-0.569,1.614-1.138,2.421-1.707c-0.464-0.346-0.929-0.692-1.393-1.038
	c-0.299,0.963-0.597,1.927-0.896,2.89c0.053-1.575-0.496-3.844,0.314-4.546c0.974-0.844,3.104-0.356,4.733-0.444l-0.127-0.137
	c0.705,3.318,1.604,6.609,2.06,9.961c0.453,3.327-4.023,6.931-9.656,7.5c1.894,0.363,3.067,0.587,4.114,0.787
	c0.148,0.649,0.387,1.077,0.264,1.256c-2.223,3.235-4.559,6.395-6.712,9.674c-0.893,1.36-1.673,2.9-2.063,4.467
	c-1.925,7.717-4.106,15.402-5.438,23.228c-2.114,12.421-4.123,24.9-5.267,37.437c-1.447,15.852,9.282,23.711,22.587,26.229
	c21.894,4.144,36.003-6.042,47.466-23.641c1.002-1.539,0.78-4.701-0.103-6.507c-5.965-12.199-7.512-24.965-6.167-38.34
	c2.09-20.781,6.817-40.886,14.868-60.162c1.332-3.189,3.32-6.115,5.129-9.087c0.671-1.102,1.697-1.988,2.742-3.179
	c1.008,0.746,1.828,1.353,2.65,1.962c0.388-0.445,0.792-0.694,0.787-0.934c-0.108-4.847,3.916-8.721,10.214-9.729
	c11.508-1.842,20.442,5.563,19.871,15.32c-0.621,10.606-0.875,21.251-1.972,31.807c-1.079,10.385-2.569,20.775-4.695,30.992
	c-2.289,11.002-5.452,21.827-8.412,32.68c-0.643,2.357-2.718,4.988,0.307,6.528c2.784,1.417,5.987,0.629,8.187-1.901
	c4.35-5.002,9.048-9.795,12.744-15.255c12.972-19.164,24.435-39.174,30.921-61.59c1.562-5.398,2.657-11.07,2.94-16.668
	c0.54-10.668,0.365-21.374,0.443-32.064c0.131-17.983-0.501-36.009,0.548-53.937c1.018-17.394,3.402-34.739,5.91-52
	c0.911-6.271,3.703-12.322,6.076-18.299c0.858-2.161,2.998-3.813,5.025-6.269c4.533,4.836,10.037,4.258,15.589,3.801
	c3.99,7.038,5.19,14.505,4.986,22.235c-0.356,13.488-0.623,26.985-1.378,40.453c-1.128,20.097-1.792,40.278-4.241,60.228
	c-2.421,19.719-6.863,39.187-10.296,58.786c-0.629,3.591-1.039,7.296-0.924,10.928c0.513,16.299,0.895,32.616,2.057,48.875
	c0.598,8.377,4.161,15.997,9.835,22.437c2.926,3.321,6.404,5.137,10.97,4.796c2.831-0.211,5.691-0.039,8.538-0.039
	c0.264,0.416,0.527,0.833,0.791,1.249c0-2.358,0.163-4.73-0.043-7.069c-0.239-2.713-1.339-5.441-1.124-8.086
	c0.605-7.448,1.698-14.857,2.581-22.283c0.077-0.649,0.269-1.454-0.011-1.951c-2.261-4.011-1.591-8.295-1.475-12.582
	c0.1-3.685-0.26-7.38-0.346-11.072c-0.021-0.895,0.349-1.797,0.345-2.695c-0.01-2.541,0.869-5.887-0.404-7.449
	c-2.375-2.915-3.285-5.535-2.249-9.017c0.128-0.43,0.06-1.209-0.224-1.428c-4.216-3.255-3.7-8.104-4.407-12.576
	c-0.354-2.236,2.975-8.115,5.619-8.695c2.57-0.564,5.294-0.407,7.943-0.651c0.663-0.061,1.426-0.295,1.92-0.714
	c3.156-2.676,4.099-0.749,4.621,2.499c2.271-1.12,4.413-2.178,6.58-3.247c1.134,1.377,2.171,2.636,3.36,4.08
	c-0.402,1.566-0.841,3.278-1.305,5.089c-2.266,0.244-4.343,0.467-6.419,0.69c0.011,0.471,0.022,0.942,0.034,1.413
	c1.46,0.202,2.92,0.403,4.38,0.605c0.083,0.289,0.166,0.578,0.25,0.867c-3.289,0.696-6.578,1.393-9.867,2.089l-0.11-0.043
	L528.946,276.993z M314.387,288.536c3.847,0.944,3.847,0.944,4.311-2.38c-1.637,0.922-3.015,1.698-4.392,2.474
	c-2.748-1.487-3.251-1.17-4.552,3.819C311.782,290.737,313.084,289.636,314.387,288.536z M536.276,266.735
	c-2.007,0.811-5.316-0.535-6.213,3.765c3.044-0.751,5.973-0.074,6.126-3.833c0.413,0.111,0.826,0.222,0.252,0.068
	C537.07,266.735,536.673,266.735,536.276,266.735z M189.159,118.276c-4.544,2.783-8.742,3.062-10.203,7.551
	c-0.897,2.756-2.053,5.487-3.499,7.994c-2.815,4.88-6.119,9.481-8.862,14.398c-11.949,21.414-19.683,44.447-26.057,68.022
	c-4.9,18.125-8.688,36.42-10.163,55.167c-0.534,6.784-1.486,13.534-2.034,20.316c-1.18,14.575-2.25,29.159-3.279,43.746
	c-0.115,1.632,0.333,3.303,0.52,4.955c0.386,0.036,0.771,0.073,1.157,0.109c0.992-1.668,2.124-3.27,2.953-5.016
	c4.41-9.287,9.055-18.479,13.034-27.949c6.679-15.896,13.488-31.78,19.149-48.049c4.071-11.7,6.579-23.97,9.385-36.078
	c2.507-10.819,4.399-21.779,6.688-32.65c2.29-10.874,4.861-21.69,7.07-32.58c1.584-7.811,3.084-15.664,4.031-23.569
	C189.646,129.646,189.159,124.515,189.159,118.276z M220.401,402.806c0.483-0.323,0.966-0.646,1.449-0.97
	c-0.758-1.674-1.666-3.299-2.237-5.035c-0.741-2.252-2.018-4.729-1.653-6.869c1.169-6.85,3.045-13.577,4.546-20.375
	c2.393-10.834,4.751-21.676,6.994-32.542c0.295-1.428-0.179-3.015-0.296-4.528c-0.402-0.091-0.805-0.181-1.207-0.272
	c-1.695,2.577-3.91,4.955-4.986,7.768c-3.239,8.465-6.446,16.985-8.886,25.702c-2.475,8.842-3.074,18.073-1.182,27.108
	C213.812,396.946,215.818,401.173,220.401,402.806z M516.668,269.487c1.497,4.236,2.649,7.493,4.034,11.41
	C523.664,275.686,522.528,272.185,516.668,269.487z M318.779,274.583c-2.019,2.473-3.223,3.949-4.913,6.02
	c2.107,0.205,3.451,0.335,4.913,0.478C318.779,278.992,318.779,277.39,318.779,274.583z M300.525,304.696
	c-0.087-0.102-0.167-0.276-0.262-0.285c-0.095-0.009-0.205,0.149-0.309,0.233c0.087,0.102,0.167,0.276,0.262,0.285
	C300.311,304.938,300.422,304.781,300.525,304.696z"/>
<path fill="#50D8B8" d="M911.918,493.256c3.127-2.67,4.494-5.365,1.664-9.396c-1.125-1.602-1.112-4.479-0.708-6.602
	c2.629-13.796,3.839-27.682,3.047-41.704c-0.442-7.815,5.38-14.126,13.174-13.939c5.332,0.127,11.577,5.207,11.522,10.433
	c-0.131,12.441-0.612,24.893-1.444,37.307c-0.727,10.837-3.621,21.188-8.421,31.02c-7.754,15.883-31.245,19.479-43.868,7.478
	c-12.877-12.244-21.742-26.674-27.066-43.457c-3.559-11.219-7.054-22.458-10.604-33.68c-0.135-0.427-0.546-0.766-1.628-2.224
	c-0.996,6.596-2.325,12.187-2.586,17.826c-0.493,10.648-0.254,21.328-0.539,31.988c-0.249,9.313-0.681,18.626-1.261,27.924
	c-0.399,6.396-3.566,8.333-10.285,6.693c-0.782-0.191-1.528-0.532-2.453-0.86c-0.88,1.303-1.421,2.854-2.511,3.585
	c-4.356,2.919-7.751,2.137-9.692-2.868c-3.164-8.162-6.028-16.474-8.436-24.889c-4.381-15.31-8.331-30.743-12.489-46.117
	c-0.159-0.586-0.61-1.093-1.177-2.07c-4.239,4.184-4.277,9.635-5.296,14.429c-2.272,10.694-3.91,21.528-5.605,32.337
	c-0.565,3.603-0.698,7.3-0.715,10.956c-0.048,10.33,0.282,20.666-0.022,30.986c-0.085,2.904-1.842,5.759-2.844,8.673
	c-3.714-0.335-6.612-0.597-9.684-0.874c-1.147,0.928-2.378,2.45-3.968,3.116c-5.647,2.365-8.945,0.342-10.409-7.112
	c-2.302-11.727-4.041-23.564-6.109-35.339c-0.848-4.828-1.935-9.613-2.913-14.418c-0.391-0.12-0.782-0.241-1.173-0.361
	c-0.852,1.374-2.138,2.645-2.49,4.137c-3.574,15.129-9.572,29.319-16.933,42.907c-4.467,8.246-10.871,14.39-20.553,16.782
	c-5.335,1.318-9.918,0.215-14.33-2.138c-6.007-3.204-10.513-8.003-13.388-14.29c-0.58-1.268-1.816-2.237-2.925-3.551
	c-4.215,8.249-7.773,15.897-11.945,23.193c-4.478,7.83-9.997,14.855-17.995,19.596c-16.507,9.786-35.298,0.452-37.484-18.446
	c-1.272-10.997,1.131-21.566,3.13-32.155c1.876-9.938,4.547-19.725,6.79-29.596c0.193-0.848-0.196-1.828-1.277-3.161
	c-1.164,1.831-2.446,3.597-3.471,5.502c-5.766,10.71-11.585,21.372-21.232,29.259c-1.274,1.042-2.604,2.016-4.057,3.137
	c-1.097-0.687-1.995-1.401-3.01-1.846c-1.239-0.544-2.577-0.863-3.873-1.279c-0.363,1.359-1.277,2.84-1.006,4.058
	c3.039,13.692,0.148,27.289-1.101,40.79c-1.108,11.973-3.67,23.942-10.005,34.603c-4.233,7.123-10.584,11.403-18.522,13.218
	c-7.61,1.74-17.395-3.078-22.098-10.66c-1.735-2.796-3.181-5.772-5.026-9.154c-1.352,0.998-2.561,1.557-3.303,2.488
	c-11.82,14.832-32.636,17.64-49.426,8.627c-3.358-1.803-6.759-3.78-9.545-6.328c-3.214-2.939-5.685-2.427-8.697,0.011
	c-9.911,8.022-21.047,13.889-32.956,18.347c-16.29,6.098-32.766,2.289-43.428-8.451c-5.898-5.941-8.03-13.588-9.492-21.505
	c-0.317-1.714-0.546-3.445-0.815-5.168c-0.472-0.08-0.944-0.16-1.417-0.239c-2.316,5.909-4.594,11.833-6.955,17.723
	c-5.114,12.758-11.502,24.744-22.078,33.897c-6.034,5.223-13.02,8.507-21.216,8.773c-15.295,0.497-23.432-8.18-27.42-20.119
	c-4.778-14.305-3.369-28.989-0.981-43.479c1.724-10.464,3.914-20.915,6.827-31.105c7.421-25.956,16.275-51.365,33.77-72.646
	c7.984-9.711,16.879-18.505,29.247-22.473c3.554-1.14,7.484-1.146,11.253-1.561c2.139-0.236,4.303-0.333,6.456-0.327
	c1.303,0.004,2.713,0.063,3.887,0.551c3.468,1.442,6.758,3.359,10.295,4.567c1.43,0.489,3.323-0.377,6.029-0.778
	c0.682,2.367,2.144,5.216,2.215,8.099c0.219,8.823,0.227,17.678-0.276,26.486c-0.882,15.439-2.237,30.851-3.334,46.278
	c-0.79,11.12-1.979,22.246-2.032,33.373c-0.032,6.709,1.272,13.552,2.901,20.104c1.391,5.592,4.853,7.539,10.422,6.856
	c3.06-0.375,6.249-1.231,8.956-2.669c7.317-3.886,14.568-7.948,21.549-12.404c9.943-6.346,10.785-9.196,8.081-20.792
	c-0.707-3.032-0.722-6.221-1.159-9.323c-0.314-2.231-0.843-4.431-1.201-6.656c-0.393-2.444-1.072-4.915-0.985-7.351
	c0.574-16.118,0.649-32.294,2.186-48.326c1.802-18.79,4-37.699,11.926-55.176c2.287-5.042,5.247-10.299,9.274-13.934
	c12.201-11.014,29.729-10.664,37.272,9.412c4.716,12.553,7.052,25.457,4.876,39.067c-2.07,12.948-2.768,26.119-4.934,39.046
	c-3.786,22.595-11.36,43.943-23.195,63.66c-3.127,5.21-3.092,7.322,2.134,10.741c3.526,2.307,7.587,4.173,11.669,5.166
	c6.046,1.471,11.904-2.733,14.703-9.29c0.646-1.514,1.953-3.724,3.157-3.862c6.713-0.771,7.349-6.036,8.34-10.826
	c0.598-2.889,0.216-5.976,0.322-8.973c0.748-21.127,0.641-42.334,2.581-63.352c1.224-13.262,5.007-26.381,8.588-39.303
	c2.912-10.512,6.823-20.805,11.052-30.875c3.415-8.133,9.337-13.913,18.659-15.677c8.866-1.678,17.928,5.302,17.039,13.84
	c-1.048,10.06-2.518,20.085-4.093,30.08c-1.212,7.692-2.714,15.348-4.364,22.96c-2.917,13.453-6.05,26.86-9.077,40.29
	c-0.139,0.619-0.123,1.273-0.244,2.64c1.321-0.945,2.14-1.557,2.985-2.13c3.667-2.485,7.057-5.666,11.076-7.286
	c7.76-3.127,11.818-9.439,15.709-16.056c4.204-7.149,8.059-14.506,12.357-21.596c5.638-9.301,14.779-13.212,24.824-15.964
	c7.238-1.983,13.445-1.316,18.485,4.527c5.959,6.908,6.583,14.995,4.687,23.494c-3.751,16.81-7.619,33.595-11.32,50.416
	c-0.961,4.368-1.755,8.81-2.128,13.26c-0.322,3.833,0.065,7.726,0.139,11.608c3.959-0.197,7.142-3.495,6.681-7.37
	c-0.636-5.34,2.284-9.06,4.101-13.474c4.469-10.86,8.87-21.819,12.189-33.066c5.722-19.392,10.522-39.055,15.912-58.548
	c0.911-3.294,2.84-6.307,4.373-9.612c3.849,1.012,9.086-2.899,10.033,4.135c1.124,0.129,1.94,0.315,2.753,0.302
	c7.305-0.114,10.319,2.365,10.058,9.63c-0.609,16.969-1.853,33.917-2.402,50.887c-0.203,6.25,0.557,12.576,1.409,18.795
	c0.39,2.848-1.029,5.928,2.064,8.673c4.215,3.74,7.543,3.694,9.35-1.556c1.017-2.955,1.084-6.229,1.994-9.233
	c0.487-1.609,2.414-2.84,2.734-4.433c2.712-13.525,5.436-27.055,7.696-40.66c2.177-13.108,3.766-26.312,5.705-39.461
	c0.556-3.771,1.332-7.517,2.182-11.234c1.351-5.904,5.083-9.919,10.835-12.907c2.688,1.558,5.546,3.214,9.487,5.498
	c7.499-0.125,8.239,0.397,10.918,9.11c0.924,3.007,1.702,6.058,2.59,9.076c0.823,2.795,1.704,5.574,2.56,8.36
	c0.401,0.05,0.801,0.101,1.202,0.151c1.579-4.603,3.051-9.245,4.762-13.799c2.39-6.363,4.676-12.789,7.521-18.951
	c3.738-8.095,12.948-10.725,20.933-6.305c7.941,4.395,12,11.671,14.526,20.023c1.07,3.537,2.097,7.086,3.144,10.63
	c0.402,0.002,0.805,0.004,1.207,0.006c0.801-2.632,1.712-5.236,2.386-7.9c4.058-16.057,7.976-32.149,12.123-48.182
	c1.759-6.8,5.942-11.788,12.472-14.601c4.969,1.95,9.947,3.904,16.14,6.335c0.521,1.753,1.886,4.821,2.289,8.011
	c0.978,7.752,1.341,15.579,2.253,23.341c2.215,18.846,5.978,37.369,12.953,55.081c3.453,8.769,6.76,17.729,11.473,25.823
	c3.346,5.747,8.809,10.313,13.601,15.133c1.272,1.279,3.557,1.55,5.377,2.285c-3.7-0.37-3.215,1.435-1.886,4.606
	C910.956,495.867,911.437,494.562,911.918,493.256z M718.547,519.584l0.135-0.321l-0.147,0.185c-0.054,1.04-0.109,2.08-0.164,3.12
	c0.07,0.209,0.139,0.418,0.151,0.453c-0.01-0.047-0.058-0.274-0.106-0.5c0.747-0.511,1.495-1.021,2.242-1.532
	C719.954,520.521,719.251,520.052,718.547,519.584z M318.569,628.159c0.094-0.612,0.357-1.501,0.341-2.385
	c-0.048-2.594-0.911-5.377,2.747-6.567c0.63-0.205,0.699-2.031,1.093-3.084c1.319-3.515,2.479-7.106,4.063-10.499
	c1.4-2.999,3.677-5.615,4.885-8.67c4.448-11.255,9.12-22.462,12.758-33.986c4.887-15.479,9.038-31.198,13.225-46.889
	c2.649-9.926,4.892-19.966,7.12-29.998c1.604-7.222,2.881-14.516,4.505-22.799c-2.132,0.623-3.458,0.882-4.68,1.39
	c-7.43,3.092-10.713,10.237-15.156,16.092c-7.765,10.233-12.54,22.063-17.547,33.859c-10.876,25.625-19.558,51.691-21.709,79.671
	c-0.664,8.643-0.462,16.836,4.178,24.522C316.149,621.73,317.21,625.064,318.569,628.159z M463.074,536.894
	c0.6,0.067,1.2,0.133,1.8,0.2c1.571-3.9,3.599-7.685,4.623-11.724c2.52-9.938,5.034-19.917,6.708-30.019
	c2.14-12.914,3.813-25.935,4.932-38.974c0.413-4.81-1.015-9.879-2.189-14.687c-0.734-3.007-2.563-5.748-3.9-8.608
	c-0.542,0.154-1.084,0.307-1.627,0.461c0.069,1.318,0.159,2.635,0.202,3.954c0.132,4.013,0.932,8.15,0.236,12.016
	c-1.988,11.048-5.13,21.904-6.808,32.989c-2.084,13.767-3.315,27.673-4.572,41.55C462.096,528.28,462.844,532.61,463.074,536.894z
	 M555.226,523.369c-0.407,0.052-0.813,0.103-1.22,0.155c-3.132,7.765-6.645,15.404-9.242,23.344
	c-1.396,4.27-2.18,9.194-1.544,13.577c1.158,7.977,3.354,15.836,5.585,23.609c0.91,3.17,3.038,5.991,4.612,8.97
	c0.643-0.161,1.286-0.323,1.929-0.484c-0.255-2.936-0.452-5.878-0.783-8.805c-0.309-2.733-1.309-5.503-1.052-8.164
	c0.877-9.074,2.451-18.083,3.219-27.163c0.545-6.433,0.355-12.942,0.197-19.41C556.882,527.108,555.821,525.244,555.226,523.369z
	 M734.587,492.336c-3.38,5.168-6.386,9.766-9.393,14.364C731.207,504.456,736.076,496.508,734.587,492.336z M316.83,635.429
	c-0.46,0.067-0.92,0.135-1.38,0.202c0.068,1.285,0.137,2.57,0.205,3.855c0.479-0.034,0.957-0.068,1.436-0.102
	C317.004,638.066,316.917,636.748,316.83,635.429z M736.233,488.684c0.362,0.213,0.724,0.426,1.086,0.639
	c0.491-0.956,0.981-1.912,1.472-2.868c-0.267-0.153-0.534-0.305-0.801-0.458C737.404,486.893,736.819,487.789,736.233,488.684z
	 M918.69,497.956c-0.402,0.052-0.804,0.105-1.206,0.157c0.156,0.765,0.311,1.529,0.467,2.294c0.246-0.025,0.493-0.051,0.739-0.076
	C918.69,499.539,918.69,498.748,918.69,497.956z M574.154,505.669c-0.342,0.381-0.551,0.614-0.76,0.847
	c0.318,0.282,0.614,0.601,0.974,0.809c0.059,0.034,0.621-0.512,0.571-0.633C574.787,506.322,574.449,506.028,574.154,505.669z
	 M908.899,501.406c-0.158-0.361-0.297-0.741-0.507-1.076c-0.024-0.038-0.67,0.21-0.661,0.276c0.055,0.409,0.214,0.804,0.339,1.204
	C908.297,501.7,908.523,501.589,908.899,501.406z M452.088,507.809l0.314-0.076l-0.185-0.341L452.088,507.809z M916.625,494.584
	c-0.127-0.093-0.254-0.185-0.38-0.278c-0.129,0.244-0.283,0.48-0.366,0.739c-0.018,0.056,0.221,0.195,0.341,0.296
	C916.356,495.089,916.492,494.837,916.625,494.584z M906.602,506.603c-0.115-0.085-0.23-0.169-0.344-0.254
	c-0.119,0.221-0.261,0.435-0.338,0.669c-0.017,0.051,0.2,0.178,0.309,0.27C906.354,507.061,906.479,506.833,906.602,506.603z
	 M920.272,504.442l-0.193,0.29l0.31,0.039L920.272,504.442z"/>
<path fill="#50D8B8" d="M544.272,258.74c1.797-1.194,3.937-2.085,5.318-3.647c2.604-2.945,5.126-3.532,7.954-0.857
	c1.55-0.754,2.85-1.944,4.122-1.916c8.597,0.193,10.445-7.004,14.004-12.382c1.091-1.649,2.258-3.297,3.646-4.691
	c2.212-2.221,5.128-3.882,2.986-7.912c-0.623-1.171,0.126-3.072,0.279-5.058c7.791-0.537,15.215-0.896,22.607-1.594
	c11.068-1.046,20.387-6.271,28.116-13.797c6.393-6.226,11.746-13.516,17.609-20.293c2.057-2.377,4.145-4.749,6.423-6.907
	c2.66-2.522,5.463-3.911,8.386-0.064c0.471,0.62,2.029,0.737,3.012,0.594c7.297-1.064,13.509,1.458,18.915,5.987
	c3.53,2.957,7.013,3.783,11.512,2.595c6.855-1.81,14.032-2.507,20.766-4.642c8.875-2.814,15.906-8.851,22.308-15.434
	c1.183-1.216,1.519-3.62,1.586-5.5c0.67-18.795,0.355-37.671,2.044-56.369c1.326-14.676,4.578-29.254,8.03-43.622
	c1.217-5.065,2.844-9.912,2.852-15.185c0.001-0.806,1.165-1.554,1.583-2.428c0.761-1.594,1.815-3.225,1.961-4.908
	c0.706-8.171,0.641-16.439,1.826-24.53c1.328-9.072,7.624-14.588,16.764-16.042c1.107-0.176,2.596-0.273,3.392,0.304
	c5.16,3.74,10.412,7.371,13.173,13.562c1.104,2.473,3.781,4.351,4.519,6.859c1.695,5.759,1.928,12.024,4.134,17.531
	c1.509,3.765,1.084,7.687,2.476,11.172c4.309,10.787,5.27,22.002,4.071,33.292c-0.888,8.368-2.696,16.711-4.901,24.847
	c-3.11,11.476-6.974,22.748-10.469,34.122c-0.16,0.521,0.141,1.184,0.422,3.119c2.776-3.251,4.866-5.681,6.936-8.128
	c4.852-5.734,10.57-9.903,18.222-11.267c12.255-2.184,22.522,5.483,23.827,17.952c1.377,13.158-2.641,24.963-9.081,36.076
	c-10.404,17.953-21.069,35.753-31.524,53.677c-2.546,4.366-4.703,8.959-6.685,12.769c4.885,1.417,9.25,3.053,13.763,3.918
	c10.273,1.97,20.605,3.651,30.941,5.271c5.399,0.846,10.875,1.193,16.282,1.992c3.649,0.539,5.798-0.977,6.71-4.299
	c1.751-6.378,3.43-12.779,4.971-19.211c1.275-5.321,3.012-10.661,3.307-16.06c0.702-12.855,5.153-24.679,9.148-36.624
	c1.874-5.605,4.708-10.888,7.107-16.317c0.518-0.079,1.036-0.159,1.554-0.238c1.842,5.131,4.385,10.129,5.393,15.419
	c2.974,15.599,3.601,31.209,0.544,47.055c-2.281,11.828-5.176,23.311-10.499,34.089c-5.314,10.76-13.016,18.893-25.446,21.116
	c-2.578,0.461-5.319,0.774-7.883,0.42c-12.507-1.728-25.05-3.337-37.437-5.73c-7.61-1.47-14.962-4.274-22.431-6.473
	c-0.612-0.18-1.238-0.315-2.586-0.654c-0.369,2.079-0.986,3.916-0.972,5.747c0.082,10.163,0.347,20.324,0.488,30.487
	c0.094,6.812,0.06,13.625,0.137,20.437c0.034,3.016-1.198,4.681-4.371,4.756c-2.304,0.054-4.691-0.043-6.887,0.524
	c-5.697,1.473-6.167,2.278-6.468,8.215c-0.049,0.964-0.351,1.916-0.559,2.997c-1.081,0.242-2.024,0.496-2.982,0.66
	c-7.959,1.365-7.87,1.316-7.889-7.07c-0.016-7.262,0.104-14.579-0.709-21.773c-2.02-17.864-4.665-35.656-6.817-53.506
	c-1.792-14.87-3.227-29.783-4.85-44.673c-0.574-5.263-1.237-10.516-1.923-16.318c-12.667,4.884-24.669,9.512-37.044,14.284
	c1.846,6.026,3.734,12.161,5.604,18.301c4.059,13.329,3.76,26.948,2.374,40.571c-0.602,5.921-1.774,11.805-3.023,17.634
	c-4.386,20.474-24.687,22.663-37.561,14.754c-16.362-10.051-28.647-23.84-31.99-43.642c-1.322-7.831-1.781-15.808-2.579-23.724
	c-0.143-1.419-0.02-2.865-0.02-4.899c-1.776,0.434-2.883,0.548-3.858,0.969c-6.991,3.018-13.92,6.181-20.941,9.125
	c-3.713,1.557-4.324,3.016-1.94,6.855c8.523,13.726,15.868,28.01,21.56,43.168c5.312,14.147,7.748,28.583,4.844,43.522
	c-2.366,12.175-10.148,19.934-21.726,23.759c-5.323,1.759-10.859,3.602-16.377,3.886c-9.907,0.51-18.791-3.467-27.084-8.652
	c-10.487-6.556-15.734-16.83-19.531-28.022c-7.463-21.999-3.355-43.282,4.206-64.328c0.558-1.553,0.807-3.218,1.387-5.598
	c-7.937,5.181-12.596,5.16-19.036,0.518C544.293,258.662,544.272,258.74,544.272,258.74z M806.284,175.59
	c1.205-0.8,2.41-1.6,3.615-2.4c0.938-1.526,1.876-3.051,2.813-4.577c-0.626-0.184-1.251-0.367-1.877-0.551
	c-0.265,1.752-0.53,3.504-0.795,5.256c-1.23,0.788-2.46,1.577-3.691,2.365c-0.16,0.84-0.321,1.679-0.481,2.519
	c0.24,0.007,0.481,0.014,0.721,0.022C806.488,177.346,806.386,176.468,806.284,175.59z M582.955,247.736
	c-0.518,0.085-1.036,0.17-1.554,0.255c-0.801,3.111-1.838,6.184-2.353,9.342c-1.094,6.705-1.89,13.457-2.853,20.184
	c-2.731,19.064-0.446,37.285,10.806,53.32c8.451,12.043,21.523,12.357,32.452,1.904c0.75-0.718,1.476-2.106,1.317-3.026
	c-1.131-6.525-1.892-13.203-3.904-19.469c-5.293-16.49-12.973-31.937-22.341-46.494
	C590.964,258.221,586.828,253.063,582.955,247.736z M768.411,138.213c10.614-18.217,14.707-37.718,17.992-57.151
	c3.354-19.84-4.012-38.814-7.76-58.051c-1.207,3.817-2.19,7.617-3.056,11.444c-1.594,7.044-3.08,14.111-4.687,21.152
	c-0.837,3.667-1.881,7.287-2.739,10.95c-0.534,2.28-0.885,4.603-1.337,6.903c-1.099,5.595-3.044,11.176-3.132,16.786
	c-0.156,9.937,0.717,19.898,1.355,29.836c0.319,4.968,1.022,9.914,1.666,14.854C766.823,135.773,767.517,136.534,768.411,138.213z
	 M674.156,211.878c-0.502,0.44-0.906,0.616-0.973,0.878c-3.143,12.304-6.479,24.334-4.947,37.541
	c1.9,16.368,10.994,26.885,23.884,35.215c2.089,1.35,4.931,2.567,7.112-1.278c-6.935-4.091-6.359-10.723-5.85-17.526
	c0.683-9.121,1.14-18.357-2-27.136c-2.772-7.751-6.126-15.301-9.394-22.865C680.516,213.296,677.336,212.352,674.156,211.878z
	 M774.114,186.632c3.118-7.947,5.944-15.15,8.77-22.354c-0.388-0.261-0.777-0.522-1.165-0.782c-3.391,4.344-7.267,8.408-9.99,13.137
	C770.124,179.42,770.229,183.286,774.114,186.632z M549.355,258.649c5.296,1.027,5.296,1.027,5.732-1.939
	C553.097,257.383,551.226,258.016,549.355,258.649z M776.029,20.759c0.337-0.055,0.674-0.111,1.011-0.166
	c-0.12-0.811-0.239-1.623-0.359-2.434c-0.372,0.06-0.744,0.121-1.116,0.181C775.72,19.146,775.875,19.952,776.029,20.759z
	 M712.07,289.531c-0.304,0.507-0.759,0.93-0.694,1.245c0.075,0.363,0.611,0.63,0.947,0.938c0.314-0.453,0.628-0.906,0.943-1.359
	C712.908,290.108,712.549,289.861,712.07,289.531z M775.052,26.665c-0.173-0.249-0.299-0.614-0.534-0.706
	c-0.168-0.066-0.479,0.235-0.727,0.373c0.216,0.329,0.431,0.658,0.647,0.987C774.643,27.101,774.847,26.884,775.052,26.665z
	 M558.916,258.629c-0.221-0.163-0.442-0.326-0.663-0.489c-0.146,0.225-0.428,0.472-0.397,0.669c0.03,0.19,0.385,0.328,0.597,0.488
	C558.607,259.076,558.762,258.854,558.916,258.629z M772.775,32.99c-0.141-0.184-0.281-0.367-0.422-0.551
	c-0.103,0.079-0.302,0.215-0.294,0.229c0.117,0.198,0.262,0.379,0.4,0.565C772.564,33.152,772.668,33.072,772.775,32.99z
	 M828.077,148.848c0.102-0.075,0.204-0.15,0.305-0.225c-0.202-0.007-0.403-0.014-0.605-0.02
	C827.877,148.684,827.977,148.766,828.077,148.848z M794.208,146.488l0.203-0.314l-0.335-0.039L794.208,146.488z"/>
<path fill="#50D8B8" d="M1191.622,256.429c-0.628,4.284,0.966,8.112,4.127,11.637c0.554,0.617-0.249,2.29,0.103,3.291
	c0.422,1.2,1.408,2.202,2.127,3.256c-4.328,6.411-11.019,8.498-17.759,10.339c-8.309,2.27-16.677,4.325-25.042,6.384
	c-2.817,0.693-3.185,2.552-2.793,4.939c0.858,5.234,1.91,10.444,2.551,15.704c1.365,11.201,2.95,22.401,3.66,33.652
	c1.144,18.109,1.606,36.261,2.446,54.391c0.539,11.64,1.129,23.28,1.926,34.904c0.28,4.087,1.244,8.127,1.989,12.768
	c8.008-1.632,15.448-2.988,22.81-4.679c20.265-4.656,40.54-9.068,61.564-6.989c0.994,0.098,2.003,0.072,2.991,0.204
	c9.048,1.209,14.325,9.925,10.092,17.945c-1.313,2.488-5.456,4.099-8.602,4.837c-3.471,0.814-7.304,0.387-10.948,0.104
	c-8.608-0.668-16.768,1.439-25.02,3.375c-10.165,2.385-20.427,4.353-30.643,6.518c-6.652,1.41-13.308,2.805-19.936,4.321
	c-1.072,0.245-2.19,0.899-2.977,1.678c-8.23,8.138-18.833,9.283-29.513,9.862c-9.957,0.539-19.939,0.605-30.484,0.895
	c-0.593-1.866-4.684-3.342-2.196-7.272c0.215-0.34-0.808-1.864-1.568-2.344c-2.086-1.318-4.338-2.373-6.96-3.763
	c4.216-6.442,8.238-11.625,16.439-12.688c9.008-1.167,17.835-3.706,26.758-5.568c3.022-0.631,2.87-2.857,2.727-5.03
	c-0.953-14.449-1.985-28.894-2.929-43.344c-0.358-5.482-0.567-10.973-0.82-16.461c-0.804-17.466-1.105-34.973-2.563-52.384
	c-1.009-12.047-3.674-23.951-5.451-35.941c-0.405-2.73-1.743-3.79-4.304-3.667c-3.494,0.168-6.99,0.32-10.478,0.576
	c-2.806,0.206-4.015,1.906-4.203,4.635c-0.709,10.284-1.235,20.59-2.295,30.839c-1.571,15.191-3.398,30.359-5.389,45.5
	c-1.253,9.534-2.703,19.064-4.594,28.49c-4.649,23.179-10.854,45.907-23.827,66.033c-7.571,11.745-18.118,19.779-32.789,19.458
	c-11.197-0.245-20.568-5.718-27.494-14.26c-11.906-14.683-19.498-31.799-24.09-49.95c-2.035-8.043-1.723-16.848-1.431-25.271
	c0.414-11.958,1.478-23.92,2.853-35.811c1.255-10.847,3.182-21.633,8.431-32.176c3.896,2.915,4.112,7.19,4.615,10.708
	c1.762,12.319,2.899,24.728,4.259,37.104c1.287,11.714,1.577,23.649,4.133,35.078c2.144,9.586,6.498,18.78,10.684,27.77
	c2.77,5.95,6.902,11.28,10.582,16.782c0.993,1.485,2.365,2.927,3.897,3.804c8.023,4.597,10.373,4.26,14.062-3.127
	c6.55-13.117,12.7-26.351,16.572-40.468c2.803-10.222,4.795-20.686,6.745-31.117c1.983-10.606,3.637-21.282,5.12-31.971
	c0.982-7.078,1.465-14.228,2.07-21.355c0.986-11.608,2.072-23.211,2.779-34.837c0.858-14.115,1.25-28.259,2.121-42.373
	c0.178-2.887,1.514-5.721,2.47-8.528c0.244-0.718,1.036-1.717,1.643-1.767c3.596-0.294,7.228-0.615,10.816-0.398
	c3.152,0.19,6.262,1.073,9.957,1.755c0,11.617,0,22.845,0,35.162c5.251-2.299,9.645-4.022,13.808-6.189
	c1.032-0.537,1.531-2.453,1.911-3.835c3.458-12.585,11.827-20.017,24.525-21.568c10.679-1.304,21.524-1.384,32.304-1.636
	C1185.893,254.294,1188.628,255.653,1191.622,256.429z"/>
<path fill="#50D8B8" d="M342.285,261.057c1.448,0.803,2.679,1.486,4.52,2.507c-1.54,0-2.402,0-2.185,0
	c-1.513,2.156-2.324,4.602-3.608,4.882c-2.984,0.652-5.575-0.756-7.235-4.165C336.827,263.126,339.514,262.108,342.285,261.057z
	 M340.962,264.526c-0.228-0.143-0.46-0.313-0.718-0.425c-0.042-0.018-0.305,0.263-0.278,0.329c0.1,0.244,0.278,0.457,0.427,0.681
	C340.583,264.916,340.773,264.72,340.962,264.526z"/>
<path fill="#50D8B8" d="M561.352,248.555c-1.111,0.756-2.222,1.512-3.333,2.267c-0.261-0.374-0.522-0.748-0.784-1.122
	c1.139-0.726,2.278-1.452,3.416-2.178C560.885,247.867,561.118,248.211,561.352,248.555z"/>
<path fill="#50D8B8" d="M327.924,265.45c0.25-0.603,0.5-1.206,0.749-1.808c0.126,0.079,0.252,0.159,0.379,0.238
	c-0.418,0.478-0.837,0.956-1.255,1.433L327.924,265.45z"/>
<polygon fill="#50D8B8" points="548.61,268.457 548.864,268.618 548.585,268.737 "/>
<path fill="#50D8B8" d="M544.293,258.662c0.077-0.262,0.154-0.525-0.042,0.141c0.198-0.637,0.109-0.351,0.02-0.064
	C544.272,258.74,544.293,258.662,544.293,258.662z"/>
<polygon fill="#373737" points="0,568.648 0.333,568.517 0.301,568.841 "/>
</svg>
