<?xml version="1.0" encoding="utf-8"?>
<!-- Generator: Adobe Illustrator 18.1.0, SVG Export Plug-In . SVG Version: 6.00 Build 0)  -->
<!DOCTYPE svg PUBLIC "-//W3C//DTD SVG 1.1//EN" "http://www.w3.org/Graphics/SVG/1.1/DTD/svg11.dtd">
<svg version="1.1" id="Layer_1" xmlns="http://www.w3.org/2000/svg" xmlns:xlink="http://www.w3.org/1999/xlink" x="0px" y="0px"
	 viewBox="0 0 406.6 188.4" enable-background="new 0 0 406.6 188.4" xml:space="preserve">
<g>
	<path fill="#FCFCFC" d="M189.8,26.3v5.6h0v5.2h0v30.5h0v5.2h0v5h31l2.4-2.3v-2.7h-31.2v-5.2h31.2V37.1h-31.2v-5.2h31.2v-3.2
		l-2.4-2.4H189.8z M196.7,63.9V40.7v-0.4h0.4h17.2h0.2l0.1,0.1l2.8,2.8l0.1,0.1v0.2v8.4v0.2l-0.1,0.1l-2.1,2.1l2.5,9.5l0.1,0.5h-0.5
		h-4.3h-0.3l-0.1-0.3l-2.2-9h-8.7v8.9v0.4h-0.4h-4.2h-0.4V63.9z M211.8,51h-10v-6.6h10l0.7,0.7v5.1L211.8,51z M180.7,37.1h2.7v30.5
		h-2.7l-2.1-2.1V39.2L180.7,37.1z M205.3,0c-28.7,0-51.9,23.2-51.9,51.9s23.2,51.9,51.9,51.9c28.7,0,51.9-23.2,51.9-51.9
		S234,0,205.3,0z M205.3,100.8c-27,0-48.9-21.9-48.9-48.9c0-27,21.9-48.9,48.9-48.9c27,0,48.9,21.9,48.9,48.9
		C254.2,78.9,232.3,100.8,205.3,100.8z M205.3,4.6c-26.1,0-47.3,21.2-47.3,47.3c0,26.1,21.2,47.3,47.3,47.3
		c26.1,0,47.3-21.2,47.3-47.3C252.6,25.8,231.4,4.6,205.3,4.6z M231.7,31.8h3.4l5.1,5.1v7.4h-6.3v-5l-2.1-2.1V31.8z M229.6,31.8v5.2
		v30.5v5.2v5l-5.3,5.3h-41l0-4.9v-5.3h-6.1l-5.1-5.1V36.9l5.1-5.1h6.1l0-10.7h41l5.3,5.3V31.8z M235.3,72.8h-3.5v-5.2h0.1l2.2-2.1
		V55h-2.3v-5.3h8.5v18L235.3,72.8z"/>
	<g>
		<g>
			<path fill="#FCFCFC" d="M0,122h9.7c6.1,0,9.1,3.4,9.1,9.6v19.7c0,6.2-3,9.6-9.1,9.6H0V122z M6.1,127.6v27.9h3.5
				c2,0,3.1-1,3.1-3.8v-20.3c0-2.8-1.2-3.8-3.1-3.8H6.1z"/>
			<path fill="#FCFCFC" d="M43.3,161h-6.2l-1.1-7.1h-7.5l-1.1,7.1h-5.6l6.2-39h9L43.3,161z M29.4,148.6h5.9l-3-19.7L29.4,148.6z"/>
			<path fill="#FCFCFC" d="M60.1,161c-0.3-1-0.6-1.6-0.6-4.8v-6.1c0-3.6-1.2-5-4-5h-2.1V161h-6.1v-39h9.3c6.4,0,9.1,3,9.1,9v3.1
				c0,4-1.3,6.6-4,7.9c3.1,1.3,4.1,4.2,4.1,8.3v6c0,1.9,0.1,3.3,0.7,4.7H60.1z M53.4,127.6v12h2.4c2.3,0,3.7-1,3.7-4.1v-3.8
				c0-2.8-0.9-4-3.1-4H53.4z"/>
			<path fill="#FCFCFC" d="M70.7,122h9.7c6.1,0,9.1,3.4,9.1,9.6v19.7c0,6.2-3,9.6-9.1,9.6h-9.7V122z M76.8,127.6v27.9h3.5
				c2,0,3.1-1,3.1-3.8v-20.3c0-2.8-1.2-3.8-3.1-3.8H76.8z"/>
			<path fill="#FCFCFC" d="M100.2,138.4h8.4v5.6h-8.4v11.4h10.6v5.6H94v-39h16.7v5.6h-10.6V138.4z"/>
			<path fill="#FCFCFC" d="M120.6,132.7V161h-5.5v-39h7.7l6.3,23.4V122h5.5v39h-6.3L120.6,132.7z"/>
			<path fill="#FCFCFC" d="M139.4,138.7h11.1v5.6h-11.1V138.7z"/>
			<path fill="#FCFCFC" d="M164.8,139.3h8.6v12.4c0,6.2-3.1,9.8-9.1,9.8c-6,0-9.1-3.6-9.1-9.8v-20.3c0-6.2,3.1-9.8,9.1-9.8
				c6,0,9.1,3.6,9.1,9.8v3.8h-5.8V131c0-2.8-1.2-3.8-3.2-3.8c-2,0-3.2,1.1-3.2,3.8V152c0,2.8,1.2,3.8,3.2,3.8c2,0,3.2-1,3.2-3.8
				v-7.2h-2.8V139.3z"/>
			<path fill="#FCFCFC" d="M177.9,122h6.1v33.4h10.1v5.6h-16.2V122z"/>
			<path fill="#FCFCFC" d="M196.7,131.3c0-6.2,3.3-9.8,9.3-9.8c6,0,9.3,3.6,9.3,9.8v20.3c0,6.2-3.3,9.8-9.3,9.8
				c-6,0-9.3-3.6-9.3-9.8V131.3z M202.8,152c0,2.8,1.2,3.8,3.2,3.8c2,0,3.2-1.1,3.2-3.8V131c0-2.8-1.2-3.8-3.2-3.8
				c-2,0-3.2,1.1-3.2,3.8V152z"/>
			<path fill="#FCFCFC" d="M226,138.4h8.4v5.6H226v11.4h10.6v5.6h-16.7v-39h16.7v5.6H226V138.4z"/>
			<path fill="#FCFCFC" d="M259.3,131v1.4c0,4-1.2,6.6-4,7.9c3.3,1.3,4.6,4.2,4.6,8.4v3.2c0,6-3.2,9.3-9.3,9.3h-9.6v-39h9.3
				C256.5,122,259.3,124.9,259.3,131z M247.1,127.6v10.3h2.4c2.3,0,3.7-1,3.7-4.1v-2.2c0-2.8-0.9-4-3.1-4H247.1z M247.1,143.4v12
				h3.5c2.1,0,3.2-0.9,3.2-3.8v-3.4c0-3.6-1.2-4.7-4-4.7H247.1z"/>
			<path fill="#FCFCFC" d="M262.9,138.7h11.1v5.6h-11.1V138.7z"/>
			<path fill="#FCFCFC" d="M290.6,161c-0.3-1-0.6-1.6-0.6-4.8v-6.1c0-3.6-1.2-5-4-5H284V161h-6.1v-39h9.3c6.4,0,9.1,3,9.1,9v3.1
				c0,4-1.3,6.6-4,7.9c3.1,1.3,4.1,4.2,4.1,8.3v6c0,1.9,0.1,3.3,0.7,4.7H290.6z M284,127.6v12h2.4c2.3,0,3.7-1,3.7-4.1v-3.8
				c0-2.8-0.9-4-3.1-4H284z"/>
			<path fill="#FCFCFC" d="M307.2,138.4h8.4v5.6h-8.4v11.4h10.6v5.6H301v-39h16.7v5.6h-10.6V138.4z"/>
			<path fill="#FCFCFC" d="M328.2,138.4h8.4v5.6h-8.4v11.4h10.6v5.6h-16.7v-39h16.7v5.6h-10.6V138.4z"/>
			<path fill="#FCFCFC" d="M343.1,122h9.7c6.1,0,9.1,3.4,9.1,9.6v19.7c0,6.2-3,9.6-9.1,9.6h-9.7V122z M349.3,127.6v27.9h3.5
				c2,0,3.1-1,3.1-3.8v-20.3c0-2.8-1.2-3.8-3.1-3.8H349.3z"/>
			<path fill="#FCFCFC" d="M372.6,138.4h8.4v5.6h-8.4v11.4h10.6v5.6h-16.7v-39h16.7v5.6h-10.6V138.4z"/>
			<path fill="#FCFCFC" d="M400.3,161c-0.3-1-0.6-1.6-0.6-4.8v-6.1c0-3.6-1.2-5-4-5h-2.1V161h-6.1v-39h9.3c6.4,0,9.1,3,9.1,9v3.1
				c0,4-1.3,6.6-4,7.9c3.1,1.3,4.1,4.2,4.1,8.3v6c0,1.9,0.1,3.3,0.7,4.7H400.3z M393.7,127.6v12h2.4c2.3,0,3.7-1,3.7-4.1v-3.8
				c0-2.8-0.9-4-3.1-4H393.7z"/>
		</g>
		<g>
			<path fill="#FCFCFC" d="M42.4,175.6h5.2c0.8,0,1.4,0.1,2,0.3c0.6,0.2,1.1,0.5,1.5,0.9c0.4,0.4,0.7,0.8,1,1.4
				c0.2,0.5,0.3,1.1,0.3,1.8v0c0,0.7-0.1,1.4-0.4,1.9c-0.3,0.6-0.6,1-1.1,1.4c-0.5,0.4-1,0.7-1.6,0.8c-0.6,0.2-1.3,0.3-2,0.3h-2.1
				v3.8h-2.8V175.6z M47.4,181.9c0.7,0,1.2-0.2,1.6-0.5c0.4-0.4,0.6-0.8,0.6-1.4v0c0-0.6-0.2-1.1-0.6-1.4c-0.4-0.3-1-0.5-1.6-0.5
				h-2.1v3.9H47.4z"/>
			<path fill="#FCFCFC" d="M63,175.5h2.6l5.4,12.7H68l-1.2-2.8h-5.3l-1.2,2.8h-2.8L63,175.5z M65.9,182.9l-1.7-4.1l-1.7,4.1H65.9z"
				/>
			<path fill="#FCFCFC" d="M78.3,175.6H81v12.6h-2.8V175.6z"/>
			<path fill="#FCFCFC" d="M89.7,175.6h2.6l5.9,7.8v-7.8h2.7v12.6h-2.4l-6.1-8v8h-2.7V175.6z"/>
			<path fill="#FCFCFC" d="M112.1,178.1h-3.8v-2.6h10.4v2.6h-3.8v10h-2.8V178.1z"/>
			<path fill="#FCFCFC" d="M126.1,175.6h2.8v12.6h-2.8V175.6z"/>
			<path fill="#FCFCFC" d="M137.5,175.6h2.6l5.9,7.8v-7.8h2.7v12.6h-2.4l-6.1-8v8h-2.7V175.6z"/>
			<path fill="#FCFCFC" d="M162.6,188.4c-1,0-1.9-0.2-2.7-0.5c-0.8-0.3-1.5-0.8-2.1-1.4c-0.6-0.6-1-1.3-1.4-2.1
				c-0.3-0.8-0.5-1.7-0.5-2.6v0c0-0.9,0.2-1.7,0.5-2.5c0.3-0.8,0.8-1.5,1.4-2.1c0.6-0.6,1.3-1.1,2.1-1.4c0.8-0.3,1.7-0.5,2.6-0.5
				c0.6,0,1.1,0,1.5,0.1c0.5,0.1,0.9,0.2,1.3,0.3c0.4,0.1,0.8,0.3,1.1,0.5c0.3,0.2,0.7,0.5,1,0.7l-1.7,2.1c-0.2-0.2-0.5-0.4-0.7-0.5
				c-0.2-0.2-0.5-0.3-0.7-0.4s-0.5-0.2-0.8-0.3c-0.3-0.1-0.6-0.1-1-0.1c-0.5,0-1,0.1-1.4,0.3c-0.4,0.2-0.8,0.5-1.2,0.8
				c-0.3,0.4-0.6,0.8-0.8,1.2c-0.2,0.5-0.3,1-0.3,1.5v0c0,0.6,0.1,1.1,0.3,1.6c0.2,0.5,0.5,0.9,0.8,1.3c0.3,0.4,0.7,0.6,1.2,0.8
				c0.5,0.2,1,0.3,1.5,0.3c1,0,1.9-0.3,2.6-0.8v-1.8h-2.8v-2.4h5.5v5.5c-0.6,0.6-1.4,1-2.3,1.4C164.8,188.2,163.8,188.4,162.6,188.4
				z"/>
			<path fill="#FCFCFC" d="M192.8,188.4c-0.9,0-1.8-0.2-2.6-0.5c-0.8-0.3-1.5-0.8-2.1-1.4c-0.6-0.6-1-1.3-1.4-2.1
				c-0.3-0.8-0.5-1.6-0.5-2.5v0c0-0.9,0.2-1.7,0.5-2.5c0.3-0.8,0.8-1.5,1.4-2.1c0.6-0.6,1.3-1.1,2.1-1.4c0.8-0.3,1.7-0.5,2.7-0.5
				c0.6,0,1.1,0,1.6,0.1c0.5,0.1,0.9,0.2,1.3,0.4c0.4,0.2,0.8,0.4,1.1,0.6c0.3,0.2,0.6,0.5,0.9,0.8l-1.8,2c-0.5-0.4-1-0.8-1.5-1
				c-0.5-0.3-1.1-0.4-1.7-0.4c-0.5,0-1,0.1-1.5,0.3c-0.5,0.2-0.8,0.5-1.2,0.8c-0.3,0.4-0.6,0.8-0.8,1.3c-0.2,0.5-0.3,1-0.3,1.5v0
				c0,0.5,0.1,1.1,0.3,1.5c0.2,0.5,0.4,0.9,0.7,1.3c0.3,0.4,0.7,0.6,1.2,0.9c0.5,0.2,0.9,0.3,1.5,0.3c0.7,0,1.3-0.1,1.8-0.4
				c0.5-0.3,1-0.6,1.5-1.1l1.8,1.8c-0.3,0.3-0.7,0.7-1,0.9c-0.3,0.3-0.7,0.5-1.1,0.7c-0.4,0.2-0.9,0.3-1.4,0.5
				C194,188.3,193.4,188.4,192.8,188.4z"/>
			<path fill="#FCFCFC" d="M210.6,188.4c-1,0-1.9-0.2-2.7-0.5c-0.8-0.3-1.5-0.8-2.1-1.4c-0.6-0.6-1.1-1.3-1.4-2.1
				c-0.3-0.8-0.5-1.6-0.5-2.5v0c0-0.9,0.2-1.7,0.5-2.5c0.3-0.8,0.8-1.5,1.4-2.1c0.6-0.6,1.3-1.1,2.1-1.4c0.8-0.3,1.7-0.5,2.7-0.5
				c1,0,1.9,0.2,2.7,0.5c0.8,0.3,1.5,0.8,2.1,1.4c0.6,0.6,1.1,1.3,1.4,2.1c0.3,0.8,0.5,1.6,0.5,2.5v0c0,0.9-0.2,1.7-0.5,2.5
				c-0.3,0.8-0.8,1.5-1.4,2.1c-0.6,0.6-1.3,1.1-2.1,1.4C212.4,188.2,211.5,188.4,210.6,188.4z M210.6,185.8c0.6,0,1.1-0.1,1.5-0.3
				c0.5-0.2,0.9-0.5,1.2-0.8c0.3-0.4,0.6-0.8,0.8-1.3c0.2-0.5,0.3-1,0.3-1.5v0c0-0.5-0.1-1.1-0.3-1.5c-0.2-0.5-0.4-0.9-0.8-1.3
				c-0.3-0.4-0.7-0.6-1.2-0.9c-0.5-0.2-1-0.3-1.5-0.3c-0.6,0-1.1,0.1-1.5,0.3c-0.5,0.2-0.9,0.5-1.2,0.8c-0.3,0.4-0.6,0.8-0.8,1.3
				c-0.2,0.5-0.3,1-0.3,1.5v0c0,0.5,0.1,1.1,0.3,1.5c0.2,0.5,0.4,0.9,0.8,1.3c0.3,0.4,0.7,0.6,1.2,0.9
				C209.5,185.7,210,185.8,210.6,185.8z"/>
			<path fill="#FCFCFC" d="M224.2,175.6h2.6l5.9,7.8v-7.8h2.7v12.6H233l-6.1-8v8h-2.7V175.6z"/>
			<path fill="#FCFCFC" d="M245.9,178.1h-3.8v-2.6h10.4v2.6h-3.8v10h-2.8V178.1z"/>
			<path fill="#FCFCFC" d="M259.9,175.6h5.8c1.6,0,2.8,0.4,3.7,1.3c0.7,0.7,1.1,1.7,1.1,2.9v0c0,1-0.2,1.9-0.7,2.5
				c-0.5,0.6-1.1,1.1-2,1.4l3.1,4.5h-3.2l-2.7-4h0h-2.1v4h-2.8V175.6z M265.5,181.7c0.7,0,1.2-0.2,1.6-0.5c0.4-0.3,0.5-0.8,0.5-1.3
				v0c0-0.6-0.2-1-0.6-1.4c-0.4-0.3-0.9-0.5-1.6-0.5h-2.8v3.6H265.5z"/>
			<path fill="#FCFCFC" d="M282.3,175.5h2.6l5.4,12.7h-2.9l-1.2-2.8h-5.3l-1.2,2.8h-2.8L282.3,175.5z M285.3,182.9l-1.7-4.1
				l-1.7,4.1H285.3z"/>
			<path fill="#FCFCFC" d="M302.2,188.4c-0.9,0-1.8-0.2-2.6-0.5c-0.8-0.3-1.5-0.8-2.1-1.4c-0.6-0.6-1-1.3-1.4-2.1
				c-0.3-0.8-0.5-1.6-0.5-2.5v0c0-0.9,0.2-1.7,0.5-2.5c0.3-0.8,0.8-1.5,1.4-2.1c0.6-0.6,1.3-1.1,2.1-1.4c0.8-0.3,1.7-0.5,2.7-0.5
				c0.6,0,1.1,0,1.6,0.1c0.5,0.1,0.9,0.2,1.3,0.4c0.4,0.2,0.8,0.4,1.1,0.6c0.3,0.2,0.6,0.5,0.9,0.8l-1.8,2c-0.5-0.4-1-0.8-1.5-1
				c-0.5-0.3-1.1-0.4-1.7-0.4c-0.5,0-1,0.1-1.5,0.3c-0.5,0.2-0.8,0.5-1.2,0.8c-0.3,0.4-0.6,0.8-0.8,1.3c-0.2,0.5-0.3,1-0.3,1.5v0
				c0,0.5,0.1,1.1,0.3,1.5c0.2,0.5,0.4,0.9,0.7,1.3c0.3,0.4,0.7,0.6,1.2,0.9c0.5,0.2,0.9,0.3,1.5,0.3c0.7,0,1.3-0.1,1.8-0.4
				c0.5-0.3,1-0.6,1.5-1.1l1.8,1.8c-0.3,0.3-0.7,0.7-1,0.9c-0.3,0.3-0.7,0.5-1.1,0.7c-0.4,0.2-0.9,0.3-1.4,0.5
				C303.3,188.3,302.8,188.4,302.2,188.4z"/>
			<path fill="#FCFCFC" d="M317.4,178.1h-3.8v-2.6H324v2.6h-3.8v10h-2.8V178.1z"/>
			<path fill="#FCFCFC" d="M336.6,188.4c-1,0-1.9-0.2-2.7-0.5c-0.8-0.3-1.5-0.8-2.1-1.4c-0.6-0.6-1.1-1.3-1.4-2.1
				c-0.3-0.8-0.5-1.6-0.5-2.5v0c0-0.9,0.2-1.7,0.5-2.5c0.3-0.8,0.8-1.5,1.4-2.1c0.6-0.6,1.3-1.1,2.1-1.4c0.8-0.3,1.7-0.5,2.7-0.5
				c1,0,1.9,0.2,2.7,0.5c0.8,0.3,1.5,0.8,2.1,1.4c0.6,0.6,1.1,1.3,1.4,2.1c0.3,0.8,0.5,1.6,0.5,2.5v0c0,0.9-0.2,1.7-0.5,2.5
				c-0.3,0.8-0.8,1.5-1.4,2.1c-0.6,0.6-1.3,1.1-2.1,1.4C338.5,188.2,337.6,188.4,336.6,188.4z M336.7,185.8c0.6,0,1.1-0.1,1.5-0.3
				c0.5-0.2,0.9-0.5,1.2-0.8c0.3-0.4,0.6-0.8,0.8-1.3c0.2-0.5,0.3-1,0.3-1.5v0c0-0.5-0.1-1.1-0.3-1.5c-0.2-0.5-0.5-0.9-0.8-1.3
				c-0.3-0.4-0.7-0.6-1.2-0.9c-0.5-0.2-1-0.3-1.5-0.3c-0.6,0-1.1,0.1-1.5,0.3c-0.5,0.2-0.9,0.5-1.2,0.8c-0.3,0.4-0.6,0.8-0.8,1.3
				c-0.2,0.5-0.3,1-0.3,1.5v0c0,0.5,0.1,1.1,0.3,1.5c0.2,0.5,0.5,0.9,0.8,1.3c0.3,0.4,0.7,0.6,1.2,0.9
				C335.6,185.7,336.1,185.8,336.7,185.8z"/>
			<path fill="#FCFCFC" d="M350.2,175.6h5.8c1.6,0,2.8,0.4,3.7,1.3c0.7,0.7,1.1,1.7,1.1,2.9v0c0,1-0.2,1.9-0.7,2.5
				c-0.5,0.6-1.1,1.1-2,1.4l3.1,4.5h-3.2l-2.7-4h0H353v4h-2.8V175.6z M355.8,181.7c0.7,0,1.2-0.2,1.6-0.5s0.5-0.8,0.5-1.3v0
				c0-0.6-0.2-1-0.6-1.4c-0.4-0.3-0.9-0.5-1.6-0.5H353v3.6H355.8z"/>
			<path fill="#FCFCFC" d="M373.1,188.4c-1,0-1.9-0.2-2.8-0.5c-0.9-0.3-1.8-0.8-2.5-1.5l1.6-2c0.6,0.5,1.2,0.8,1.8,1.1
				c0.6,0.3,1.3,0.4,2,0.4c0.6,0,1-0.1,1.3-0.3c0.3-0.2,0.5-0.5,0.5-0.9v0c0-0.2,0-0.3-0.1-0.5c-0.1-0.1-0.2-0.3-0.4-0.4
				c-0.2-0.1-0.4-0.2-0.8-0.4c-0.3-0.1-0.8-0.2-1.3-0.4c-0.6-0.2-1.2-0.3-1.7-0.5s-1-0.4-1.3-0.7c-0.4-0.3-0.6-0.6-0.8-1.1
				c-0.2-0.4-0.3-0.9-0.3-1.6v0c0-0.6,0.1-1.1,0.3-1.6c0.2-0.5,0.5-0.9,0.9-1.2c0.4-0.3,0.9-0.6,1.4-0.8c0.5-0.2,1.1-0.3,1.8-0.3
				c0.9,0,1.8,0.1,2.5,0.4c0.8,0.3,1.5,0.7,2.1,1.2l-1.4,2.1c-0.6-0.4-1.1-0.7-1.7-0.9c-0.5-0.2-1.1-0.3-1.6-0.3
				c-0.5,0-0.9,0.1-1.2,0.3c-0.3,0.2-0.4,0.5-0.4,0.8v0c0,0.2,0,0.4,0.1,0.5c0.1,0.2,0.2,0.3,0.4,0.4c0.2,0.1,0.5,0.2,0.8,0.3
				c0.4,0.1,0.8,0.2,1.3,0.4c0.6,0.2,1.2,0.4,1.7,0.6c0.5,0.2,0.9,0.5,1.3,0.8c0.3,0.3,0.6,0.6,0.8,1c0.2,0.4,0.3,0.9,0.3,1.4v0
				c0,0.6-0.1,1.2-0.3,1.7c-0.2,0.5-0.5,0.9-0.9,1.2c-0.4,0.3-0.9,0.6-1.5,0.8S373.8,188.4,373.1,188.4z"/>
		</g>
	</g>
</g>
</svg>
