<?xml version="1.0" encoding="utf-8"?>
<!-- Generator: Adobe Illustrator 18.1.0, SVG Export Plug-In . SVG Version: 6.00 Build 0)  -->
<!DOCTYPE svg PUBLIC "-//W3C//DTD SVG 1.1//EN" "http://www.w3.org/Graphics/SVG/1.1/DTD/svg11.dtd">
<svg version="1.1" xmlns="http://www.w3.org/2000/svg" xmlns:xlink="http://www.w3.org/1999/xlink" x="0px" y="0px"
	 viewBox="0 0 25.5 15.2" enable-background="new 0 0 25.5 15.2" xml:space="preserve">
<g id="Layer_1">
	<g>
		<text transform="matrix(1 0 0 1 -677.6187 -1850.7437)"><tspan x="0" y="0" fill="#565556" font-family="'MuseoSans-300'" font-size="20" letter-spacing="2">Strategy </tspan><tspan x="120.6" y="0" fill="#62C2CC" font-family="'MuseoSans-300'" font-size="20" letter-spacing="2">+ </tspan><tspan x="143.7" y="0" fill="#565556" font-family="'MuseoSans-300'" font-size="20" letter-spacing="2">Design</tspan></text>
		
			<text transform="matrix(1 0 0 1 -623.0355 -1876.0771)" fill="#565556" font-family="'MuseoSans-300'" font-size="14" letter-spacing="1">user focused</text>
	</g>
	<g>
		
			<line fill="none" stroke="#231F20" stroke-width="2" stroke-linecap="round" stroke-miterlimit="10" x1="-123.4" y1="-1875.7" x2="-91.8" y2="-1875.7"/>
		
			<line fill="none" stroke="#3D3D3D" stroke-width="2" stroke-linecap="round" stroke-miterlimit="10" x1="-123.4" y1="-1866.8" x2="-91.8" y2="-1866.8"/>
		
			<line fill="none" stroke="#231F20" stroke-width="2" stroke-linecap="round" stroke-miterlimit="10" x1="-123.4" y1="-1857.8" x2="-91.8" y2="-1857.8"/>
	</g>
	<g>
		<g>
			<polygon fill="#FFFFFF" points="-1033.8,-1845.8 -1035,-1845.8 -1036,-1846 -1036.6,-1846.7 -1036.9,-1847.7 -1036.9,-1848.8 
				-1036.9,-1850 -1037,-1851.3 -1037,-1852.4 -1036.9,-1853.6 -1037,-1854.9 -1037,-1856.1 -1036.9,-1857.2 -1036.9,-1858.5 
				-1036.9,-1859.7 -1036.9,-1860.9 -1037,-1862.1 -1037,-1863.3 -1037,-1864.5 -1036.9,-1865.7 -1037,-1866.9 -1036.9,-1868.1 
				-1036.9,-1869.4 -1036.9,-1870.5 -1037,-1871.8 -1036.9,-1872.9 -1036.9,-1874.2 -1036.9,-1875.4 -1036.9,-1876.6 
				-1036.9,-1877.8 -1037,-1879 -1036.9,-1880.2 -1036.9,-1881.4 -1036.9,-1882.6 -1037,-1883.9 -1036.9,-1885 -1036.9,-1886.2 
				-1036.9,-1887.4 -1036.5,-1888.2 -1035.7,-1888.5 -1034.6,-1888.6 -1033.4,-1888.6 -1032.2,-1888.6 -1031,-1888.5 
				-1029.8,-1888.6 -1028.6,-1888.6 -1027.5,-1888.6 -1026.2,-1888.6 -1025.1,-1888.6 -1023.9,-1888.6 -1022.7,-1888.7 
				-1021.5,-1888.6 -1020.3,-1888.6 -1019.1,-1888.6 -1017.9,-1888.5 -1016.7,-1888.6 -1015.6,-1888.5 -1014.3,-1888.6 
				-1013.2,-1888.6 -1012,-1888.5 -1010.7,-1888.6 -1009.6,-1888.5 -1008.4,-1888.5 -1007.2,-1888.5 -1006,-1888.5 -1004.8,-1888.6 
				-1003.6,-1888.5 -1002.4,-1888.7 -1000,-1888.7 -998.9,-1888.6 -997.7,-1888.5 -996.4,-1888.6 -995.3,-1888.6 -994,-1888.6 
				-992.9,-1888.6 -991.7,-1888.5 -990.4,-1888.6 -989.3,-1888.6 -988.1,-1888.5 -986.9,-1888.6 -985.7,-1888.6 -984.5,-1888.6 
				-983.3,-1888.5 -982.1,-1888.6 -980.9,-1888.5 -979.7,-1888.6 -978.5,-1888.6 -977.3,-1888.6 -976.1,-1888.6 -975.6,-1888.5 
				-975.1,-1887.9 -975.2,-1887.1 -975.6,-1886 -976,-1884.9 -976.4,-1883.8 -976.8,-1882.6 -977.2,-1881.5 -977.6,-1880.4 
				-978,-1879.2 -978.4,-1878 -978.8,-1877 -979.3,-1875.8 -979.7,-1874.7 -980.1,-1873.5 -980.5,-1872.4 -980.9,-1871.2 
				-981.3,-1870.1 -981.7,-1868.9 -982.1,-1867.7 -982.1,-1866.6 -981.7,-1865.4 -981.4,-1864.3 -980.9,-1863.1 -980.5,-1862 
				-980.1,-1860.9 -979.7,-1859.7 -979.3,-1858.6 -978.8,-1857.4 -978.4,-1856.3 -978,-1855.2 -977.6,-1854 -977.2,-1852.9 
				-976.8,-1851.7 -976.5,-1850.6 -976,-1849.5 -975.6,-1848.3 -975.2,-1847.2 -975.2,-1846.4 -975.6,-1845.8 -976.2,-1845.7 
				-977.3,-1845.7 -978.5,-1845.7 -980.9,-1845.7 -982.1,-1845.8 -983.3,-1845.7 -984.5,-1845.8 -985.7,-1845.7 -986.9,-1845.8 
				-988.2,-1845.7 -989.3,-1845.7 -990.5,-1845.7 -991.7,-1845.7 -992.9,-1845.8 -994.1,-1845.7 -995.3,-1845.8 -996.5,-1845.8 
				-997.7,-1845.8 -998.9,-1845.7 -1000.1,-1845.8 -1001.3,-1845.8 -1002.5,-1845.7 -1003.7,-1845.8 -1004.9,-1845.8 
				-1006.1,-1845.8 -1007.3,-1845.7 -1008.5,-1845.8 -1009.7,-1845.8 -1011,-1845.7 -1012.1,-1845.8 -1013.4,-1845.7 
				-1014.5,-1845.8 -1015.7,-1845.8 -1018.2,-1845.7 -1019.3,-1845.8 -1020.6,-1845.8 -1021.8,-1845.8 -1023,-1845.8 
				-1024.2,-1845.8 -1025.4,-1845.7 -1026.6,-1845.8 -1027.8,-1845.7 -1029,-1845.7 -1030.2,-1845.8 -1031.4,-1845.7 
				-1032.6,-1845.7 			"/>
			<path fill="#232323" d="M-1000.1-1888.3l1.2,0.1l1.2,0l0,0l0,0l1.1-0.1l1.1,0.1l0,0l0,0l1.2-0.1l1.2,0l1.2,0.1l0.1,0l0.1,0
				l1.2-0.1l1.1,0l1.1,0.1l0.1,0l0.1,0l1.1-0.1l1.2,0l1.2,0l1.2,0l1.2,0l1.2,0.1l0.1,0l0.1,0l1.1-0.1l1.1,0.1l0,0l0,0l1.2-0.1
				l1.1,0.1l0.4,0l0.3,0.3l-0.1,0.6l-0.4,1.1l-0.3,1.1l-0.5,1.1l0,0l0,0l-0.3,1.1l-0.4,1.1l-0.5,1.2l-0.4,1.2l-0.3,1.1l-0.4,1.1
				l-0.4,1.1l-0.5,1.1l0,0l0,0l-0.3,1.1l-0.4,1.1l0,0l0,0l-0.3,1.1l-0.4,1.2l-0.4,1.1l-0.4,1.1l0,0.1l0,0.1l0,1l0,0.2l0.1,0.1
				l0.4,1.1l0.3,1.1l0,0.1l0,0.1l0.5,1.1l0.4,1.1l0.4,1.1l0.4,1.2l0.4,1.2l0.5,1.1l0.4,1.1l0.4,1.1l0.4,1.1l0.4,1.2l0.4,1.1l0.4,1.2
				l0,0l0,0l0.4,1.1l0.4,1.1l0.3,1l0,0.6l-0.3,0.4l-0.3,0.1l-1.1,0l-1.2,0l-1.2,0l-1.2,0l-1.2-0.1l0,0l0,0l-1.2,0.1l-1.2-0.1l0,0
				l0,0l-1.1,0.1l-1.1-0.1l-0.1,0l-0.1,0l-1.2,0.1l-1.2,0l-1.2,0l-1.2,0l-1.2-0.1l-0.1,0l-0.1,0l-1.2,0.1l-1.2-0.1l-1.2,0l-1.2,0
				l-1.2,0.1l-1.2-0.1l-1.3,0l-1.1,0.1l-1.1-0.1l0,0l0,0l-1.2,0l-1.2,0l-1.2,0.1l-1.2-0.1l0,0l0,0l-1.2,0l-1.2,0.1l-1.2-0.1l0,0l0,0
				l-1.2,0l-1.2,0l-1.2,0l-1.2,0l-1.2,0l-1.2-0.1l-1.2,0l-1.2,0l-1.2,0l-1.2,0l0,0l0,0l-1.1,0.1l-1.1-0.1l-0.1,0l-0.1,0l-1.2,0.1
				l-1.1,0l-1.2-0.1l0,0l0,0l-1.2,0l-1.1,0l-1.2-0.1l-0.1,0l-0.1,0l-1.1,0.1l-0.8-0.2l-0.5-0.6l-0.3-0.8l0-1.1l0-1.2l0,0l0,0
				l-0.1-1.2l0-1.1l0.1-1.2l0-0.1l0-0.1l-0.1-1.2l0-1.1l0.1-1.2l0,0l0,0l0-1.2l0-1.2l0-1.2l-0.1-1.2l0-1.2l0-1.2l0.1-1.2l0,0l0,0
				l0-1.2l0.1-1.2l0,0l0,0l-0.1-1.2l0-1.3l0-1.2l0.1-1.2l0,0l0,0l0-1.2l0-1.2l0,0l0,0l0-1.2l0-1.2l-0.1-1.2l0.1-1.2l0,0l0,0l0-1.2
				l0-1.2l0-1.2l0-1.2l0.1-1.2l0,0l0,0l0-1.1l0.2-0.6l0.6-0.2l1.1,0l1.2,0l1.2,0l1.2,0l1.2,0l1.2,0l1.2,0l0,0l0,0l1.1-0.1l1.2,0.1
				l0,0l0,0l1.2,0l1.2-0.1l1.2,0l1.2,0l1.2,0l1.2,0.1l0,0l0,0l1.1-0.1l1.1,0.1l0,0l0,0l1.2,0l1.2,0l1.2,0.1l0.1,0l0.1,0l1.1-0.1
				l1.1,0.1l0,0l0,0l1.2,0l1.2,0l1.2,0l0,0l0,0l1.1-0.1l1.1,0.1l0.1,0l0.1,0l1.2-0.1l1.2,0L-1000.1-1888.3 M-1000-1889l-1.2,0
				l-1.2,0l-1.2,0.1l-1.2-0.1l-1.2,0.1l-1.2,0l-1.2,0l-1.2,0l-1.2-0.1l-1.2,0.1l-1.2-0.1l-1.2,0l-1.2,0l-1.2-0.1l-1.2,0.1l-1.2-0.1
				l-1.2,0l-1.2,0l-1.2-0.1l-1.2,0.1l-1.2,0l-1.2-0.1l-1.2,0.1l-1.2,0l-1.2,0l-1.2,0l-1.2,0l-1.2,0l-1.2,0l-1.2,0l-1,0.4l-0.4,1
				l0,1.2l-0.1,1.2l0,1.2l0,1.2l0,1.2l0,1.2l-0.1,1.2l0.1,1.2l0,1.2l0,1.2l-0.1,1.2l0,1.2l-0.1,1.2l0.1,1.2l0,1.2l0.1,1.2l-0.1,1.2
				l0,1.2l-0.1,1.2l0,1.2l0,1.2l0.1,1.2l0,1.2l0,1.2l0,1.2l-0.1,1.2l0,1.2l0.1,1.2l-0.1,1.2l0,1.2l0.1,1.2l0,1.2l0,1.2l0.3,1.1
				l0.8,0.9l1.2,0.3l1.2-0.1l1.2,0.1l1.2,0l1.2,0l1.2,0.1l1.2,0l1.2-0.1l1.2,0.1l1.2-0.1l1.2,0l1.2,0l1.2,0l1.2,0l1.2,0.1l1.2,0
				l1.2,0l1.2,0l1.2,0l1.2,0l1.2,0.1l1.2-0.1l1.2,0l1.2,0.1l1.2-0.1l1.2,0l1.2,0l1.2,0.1l1.2-0.1l1.2,0l1.2,0.1l1.2-0.1l1.2,0l1.2,0
				l1.2,0.1l1.2-0.1l1.2,0.1l1.2,0l1.2,0l1.2,0l1.2-0.1l1.2,0.1l1.2-0.1l1.2,0.1l1.2-0.1l1.2,0.1l1.2,0l1.2,0l1.2,0l1.2,0l0.7-0.2
				l0.6-0.8l0-1l-0.4-1.2l-0.4-1.1l-0.5-1.1l-0.4-1.2l-0.4-1.1l-0.3-1.2l-0.4-1.1l-0.4-1.1l-0.4-1.1l-0.5-1.1l-0.4-1.1l-0.4-1.1
				l-0.4-1.1l-0.4-1.1l-0.5-1.1l-0.3-1.2l-0.4-1.1l0-1l0.4-1.1l0.4-1.2l0.4-1.1l0.4-1.2l0.4-1.1l0.4-1.2l0.5-1.1l0.4-1.1l0.4-1.1
				l0.3-1.2l0.4-1.1l0.4-1.1l0.4-1.1l0.3-1.2l0.5-1.1l0.3-1.2l0.4-1.1l0.1-1l-0.7-0.8l-0.7-0.1l-1.2-0.1l-1.2,0.1l-1.2-0.1l-1.2,0.1
				l-1.2-0.1l-1.2,0l-1.2,0l-1.2,0l-1.2,0l-1.2,0.1l-1.2-0.1l-1.2,0l-1.2,0.1l-1.2-0.1l-1.2,0l-1.2,0.1l-1.2-0.1l-1.2,0.1l-1.2,0
				L-1000-1889L-1000-1889z"/>
		</g>
		<g>
			<g>
				<g>
					<polyline fill="none" stroke="#232323" stroke-width="0.7776" stroke-miterlimit="10" points="-1002.3,-1863.7 
						-1001.6,-1862.8 -1000.9,-1861.8 -1000.2,-1860.9 -999.6,-1859.9 -998.9,-1859 -998.2,-1858.1 -997.6,-1857.2 -996.8,-1856.3 
						-996.2,-1855.3 -995.5,-1854.4 					"/>
				</g>
				<g>
					<polyline fill="none" stroke="#232323" stroke-width="0.7776" stroke-miterlimit="10" points="-1019.3,-1863.9 -1018.1,-1864 
						-1017,-1863.9 -1015.8,-1864 -1014.6,-1863.9 -1013.5,-1863.9 -1012.3,-1863.9 -1011.2,-1864 -1010,-1864 -1008.8,-1863.9 
						-1007.7,-1864 -1006.5,-1863.9 -1005.3,-1863.9 -1004.2,-1863.9 -1003,-1864 -1001.9,-1863.9 -1000.6,-1864.1 -999.6,-1864.7 
						-998.6,-1865.4 -997.8,-1866.4 -997.2,-1867.4 -996.9,-1868.6 -996.6,-1869.8 -996.5,-1871 -996.3,-1872.2 -996.5,-1873.5 
						-996.6,-1874.7 -996.9,-1875.9 -997.6,-1877 -998.4,-1877.9 -999.5,-1878.6 -1000.6,-1879 -1001.8,-1879 -1003,-1879.2 
						-1004.2,-1879.2 -1005.3,-1879.1 -1006.5,-1879.1 -1007.6,-1879 -1008.8,-1879.1 -1010,-1879.2 -1011.1,-1879.2 
						-1012.3,-1879.1 -1013.4,-1879.1 -1014.6,-1879 -1015.8,-1879.1 -1016.9,-1879.1 -1018.1,-1879.2 -1019.3,-1879.1 
						-1019.3,-1877.9 -1019.2,-1876.8 -1019.2,-1875.6 -1019.3,-1874.4 -1019.3,-1873.2 -1019.3,-1872.1 -1019.2,-1870.9 
						-1019.2,-1869.7 -1019.3,-1868.6 -1019.3,-1867.4 -1019.3,-1866.2 -1019.3,-1865 -1019.2,-1863.9 -1019.3,-1862.7 
						-1019.3,-1861.5 -1019.2,-1860.3 -1019.2,-1859.1 -1019.2,-1858 -1019.3,-1856.8 -1019.3,-1855.6 -1019.2,-1854.4 					"/>
				</g>
				<g>
					<polyline fill="none" stroke="#232323" stroke-width="0.7776" stroke-miterlimit="10" points="-1022.3,-1854.4 
						-1021.2,-1854.3 -1020,-1854.4 -1018.9,-1854.4 -1017.7,-1854.4 -1016.5,-1854.4 					"/>
				</g>
				<g>
					<polyline fill="none" stroke="#232323" stroke-width="0.7776" stroke-miterlimit="10" points="-998.8,-1854.3 -997.6,-1854.4 
						-996.5,-1854.4 -995.3,-1854.4 -994.2,-1854.5 -993,-1854.4 					"/>
				</g>
				<g>
					<g>
						<polyline fill="none" stroke="#232323" stroke-width="0.7776" stroke-miterlimit="10" points="-1008.9,-1857.8 -1008.8,-1859 
							-1008.9,-1860.2 -1008.9,-1861.5 -1008.8,-1862.7 -1008.8,-1863.9 -1008.9,-1865.1 -1008.8,-1866.3 -1008.9,-1867.5 
							-1008.9,-1868.7 -1008.8,-1869.9 -1008.9,-1871.1 -1008.9,-1872.3 -1007.6,-1872.3 -1006.4,-1872.3 -1005.1,-1872.3 
							-1003.9,-1872.3 -1002.7,-1872.3 -1002.7,-1870.8 -1002.6,-1869.4 						"/>
					</g>
					<g>
						<polyline fill="none" stroke="#232323" stroke-width="0.7776" stroke-miterlimit="10" points="-1008.9,-1872.3 -1010,-1872.3 
							-1011.1,-1872.3 -1012.2,-1872.3 -1013.3,-1872.3 -1014.4,-1872.2 -1015.5,-1872.3 -1015.5,-1870.8 -1015.5,-1869.4 						"/>
					</g>
				</g>
				<g>
					<polyline fill="none" stroke="#232323" stroke-width="0.7776" stroke-miterlimit="10" points="-1017.7,-1879.1 
						-1018.9,-1879.2 -1020,-1879.1 -1021.2,-1879 -1022.4,-1879.1 -1023.7,-1879 					"/>
				</g>
			</g>
		</g>
	</g>
	<line fill="none" stroke="#EAEAEA" stroke-miterlimit="10" x1="-1067.4" y1="-1820.1" x2="-59.4" y2="-1820.1"/>
	<g>
		<line fill="none" stroke="#3D3D3D" stroke-width="0.75" stroke-miterlimit="10" x1="0" y1="0.4" x2="25.5" y2="0.4"/>
		<line fill="none" stroke="#3D3D3D" stroke-width="0.75" stroke-miterlimit="10" x1="0" y1="7.6" x2="25.5" y2="7.6"/>
		<line fill="none" stroke="#3D3D3D" stroke-width="0.75" stroke-miterlimit="10" x1="0" y1="14.8" x2="25.5" y2="14.8"/>
	</g>
</g>
<g id="phone-ipad-desktop" display="none">
</g>
</svg>
