<?xml version="1.0" encoding="utf-8"?>
<!-- Generator: Adobe Illustrator 18.0.0, SVG Export Plug-In . SVG Version: 6.00 Build 0)  -->
<!DOCTYPE svg PUBLIC "-//W3C//DTD SVG 1.1//EN" "http://www.w3.org/Graphics/SVG/1.1/DTD/svg11.dtd">
<svg version="1.1" id="Layer_1" xmlns="http://www.w3.org/2000/svg" xmlns:xlink="http://www.w3.org/1999/xlink" x="0px" y="0px"
	 viewBox="0 0 86.5 60.5" enable-background="new 0 0 86.5 60.5" xml:space="preserve">
<g>
	<path fill="#232323" d="M-349,378.4l4,0.4l0.1,0l0.1,0l4.2,0.1l0.2,0l0.2,0l3.9-0.3l3.9,0.2l0.2,0l0.2,0l4.1-0.2l4,0l4.1,0.3l0.3,0
		l0.3,0l4.1-0.3l3.9-0.1l4,0.4l0.4,0l0.4,0l4-0.3l4,0.2l0,0l0,0l4.2,0.1l0,0l0,0l4.2,0l0.1,0l0.1,0l4.1-0.1l4.1,0.2l0.3,0l0.3,0
		l3.9-0.3l3.9,0.2l0.2,0l0.2,0l4-0.2l3.9,0.2l0.8,0.1l0.2,0.3l-0.2,1.4l-1.3,3.6l0,0.1l0,0.1l-1.1,3.9l-1.6,3.7l-0.1,0.2l-0.1,0.2
		l-1.2,4l-1.4,3.8l-1.6,3.9l0,0.1l0,0.1l-1.4,4l0,0.1l0,0.1l-1.2,3.9l-1.5,3.8l0,0l0,0l-1.4,3.9l-1.6,3.9l-0.1,0.2l-0.1,0.2
		l-1.2,3.9l-1.5,3.8l-0.1,0.1l0,0.1l-1.2,4l-1.4,3.9l0,0.1l0,0.1l-1.3,4l-1.4,4l-0.2,0.6l0,0.6l-0.2,3.5l0,0.8l0.3,0.7l1.4,3.9
		l1.1,4l0.1,0.3l0.1,0.3l1.7,3.7l1.3,3.8l0,0l0,0l1.4,4l1.3,4l0,0.1l0,0.1l1.5,4l0,0.1l0,0.1l1.6,3.7l1.3,3.9l0,0.1l0,0.1l1.5,3.9
		l1.4,3.9l1.2,4l0,0.1l0,0.1l1.4,4l1.3,4l0,0.1l0.1,0.1l1.6,3.9l1.4,3.9l1.1,3.4l0,1.6l-0.4,0.6l-0.5,0.1l-3.8,0l-4.2,0l-4.3,0
		l-4.1,0l-4.1-0.2l-0.2,0l-0.2,0l-4,0.3l-4-0.2l-0.2,0l-0.2,0l-3.9,0.2l-3.9-0.4l-0.4,0l-0.4,0l-4,0.4l-4-0.1l-0.1,0l-0.1,0
		l-4.1,0.1l-4-0.1l-4.1-0.3l-0.3,0l-0.3,0l-4,0.3l-4-0.2l0,0l0,0l-4.2-0.1l-0.1,0l-0.1,0l-4.3,0.2l-4,0.2l-4.1-0.2l-0.1,0l-0.1,0
		l-4.2,0l-0.1,0l-0.1,0l-3.9,0.2l-3.9-0.4l-0.2,0l-0.2,0l-4.2,0l0,0l0,0l-4.2,0.1l-0.1,0l-0.1,0l-4,0.2l-4-0.2l-0.1,0l-0.1,0l-4.2,0
		l-0.1,0l-0.1,0l-4,0.2l-4-0.3l-0.2,0l-0.2,0l-4.1,0.2l-4.1-0.1l0,0l0,0l-4.2,0l0,0l0,0l-4.2,0.1l-4.1,0.1l-4.1-0.2l-0.1,0l-0.1,0
		l-4.2-0.1l-4.2-0.1l-0.1,0l-0.1,0l-4.2,0l-4.2,0l-0.2,0l-0.2,0l-3.9,0.4l-3.9-0.3l-0.4,0l-0.4,0l-4,0.4l-3.9,0l-4.1-0.3l-0.2,0
		l-0.2,0l-4.3,0.2l-3.9,0.2l-4-0.4l-0.3,0l-0.3,0l-3.7,0.2l-2.3-0.5l-1.3-1.5l-0.8-2.5l0-3.6l0.2-4.2l0-0.2l0-0.2l-0.3-4.1l0-3.9
		l0.4-4.1l0-0.4l0-0.4l-0.4-4l0-3.9l0.3-4.1l0-0.2l0-0.2l0-4.2l0.1-4.2l0-0.1l0-0.1l-0.1-4.3l0-0.1l0-0.1l-0.2-4.1l0-4.1l0-0.1
		l0-0.1l-0.1-4.1l0.3-4.1l0-0.2l0-0.2l-0.2-4.1l0.3-4.1l0-0.2l0-0.2l-0.2-4.1l0.1-4.1l0-0.1l0-0.1l-0.2-4l0.2-4.1l0-0.2l0-0.2
		l-0.1-4.1l0.2-4.1l0-0.2l0-0.2l-0.1-4.2l-0.1-4.2l0-0.1l0-0.1l-0.2-4l0.3-4l0-0.2l0-0.2l0-4.3l0,0l0,0l-0.1-4.3l0,0l0,0l-0.2-4.2
		l0.1-4.1l0.3-4.2l0-0.1l0-0.1l0-3.5l0.6-1.3l1.4-0.6l3.4,0l0.1,0l0.1,0l4.1-0.1l4.1,0.1l4.2,0.1l0.1,0l0.1,0l4.2-0.1l4.1-0.1
		l4.1,0.1l0.1,0l0.1,0l4-0.2l4,0.2l0.2,0l0.2,0l4.2-0.1l0.1,0l0.1,0l4-0.2l4,0.2l0.1,0l0.1,0l4.2,0l4.1,0.1l4.2,0.2l0.3,0l0.2,0
		l3.9-0.3l3.9,0.3l0.2,0l0.2,0l4.2-0.1l4-0.1l4,0.2l0.3,0l0.3,0l3.9-0.3l3.9,0.3l0.1,0l0.1,0l4.2,0l0,0l0,0l4.2,0l4.2,0l0.2,0l0.2,0
		l3.9-0.3l3.9,0.3l0.3,0l0.3,0l4-0.4l4,0L-349,378.4 M-348.9,374.4l-4.2,0l-4.2,0l-4.2,0.4l-4.2-0.3l-4.2,0.3l-4.2,0l-4.2,0l-4.2,0
		l-4.2-0.3l-4.2,0.3l-4.2-0.2l-4.2,0.2l-4.2,0.1l-4.2-0.3l-4.2,0.3l-4.2-0.2l-4.2-0.1l-4.2,0l-4.2-0.2l-4.2,0.2l-4.2,0.1l-4.2-0.2
		l-4.2,0.2l-4.2-0.1l-4.2,0.1l-4.2,0.1l-4.2-0.1l-4.2-0.1l-4.2,0.1l-4.2,0l-3.6,1.5l-1.5,3.6l0,4.3l-0.3,4.3l-0.1,4.3l0.2,4.3
		l0.1,4.3l0,4.3l-0.3,4.3l0.2,4.3l0.1,4.3l0.2,4.3l-0.2,4.3l0.2,4.3l-0.3,4.3l0.2,4.3l-0.1,4.3l0.2,4.3l-0.3,4.3l0.2,4.3l-0.3,4.3
		l0.1,4.3l-0.1,4.3l0.2,4.3l0.1,4.3l-0.1,4.3l0,4.3l-0.3,4.3l0,4.3l0.4,4.3l-0.4,4.3l0,4.3l0.3,4.3l-0.2,4.3l0,4.3l1.2,4l2.8,3.1
		l4.1,0.9l4.3-0.2l4.3,0.5l4.2-0.2l4.2-0.2l4.2,0.3l4.2,0l4.2-0.4l4.2,0.4l4.2-0.4l4.2,0l4.2,0l4.2,0.1l4.2,0.1l4.2,0.2l4.2-0.1
		l4.2-0.1l4.2,0l4.2,0.1l4.2-0.2l4.2,0.3l4.2-0.3l4.2,0l4.2,0.2l4.2-0.2l4.2-0.1l4.2,0l4.2,0.4l4.2-0.3l4.2,0l4.2,0.2l4.2-0.2
		l4.2-0.2l4.2,0.1l4.2,0.2l4.2-0.3l4.2,0.3l4.2,0.1l4.2-0.1l4.2,0.1l4.2-0.4l4.2,0.4l4.2-0.3l4.2,0.2l4.2-0.3l4.2,0.2l4.2,0l4.2,0
		l4.2,0l4.2,0l2.4-0.5l2-2.9l0-3.5l-1.3-4.1l-1.5-4l-1.6-4l-1.3-4.1l-1.4-4l-1.2-4.1l-1.5-4l-1.5-4l-1.3-4l-1.7-3.9l-1.5-4l-1.3-4.1
		l-1.4-4l-1.3-4l-1.8-3.9l-1.2-4.1l-1.4-4l0.2-3.5l1.4-4l1.3-4.1l1.5-4l1.3-4.1l1.6-4l1.2-4.1l1.6-3.9l1.5-4l1.6-4l1.2-4.1l1.4-4
		l1.6-4l1.4-4l1.2-4.1l1.7-3.9l1.2-4.1l1.4-4l0.5-3.6l-2.4-2.9l-2.5-0.3l-4.2-0.3l-4.2,0.3l-4.2-0.2l-4.2,0.4l-4.2-0.2l-4.2,0.1
		l-4.2,0l-4.2-0.1l-4.2-0.2l-4.2,0.4l-4.2-0.4l-4.2,0.1l-4.2,0.3l-4.2-0.3l-4.2,0l-4.2,0.2l-4.2-0.2l-4.2,0.3l-4.2-0.1L-348.9,374.4
		L-348.9,374.4z"/>
</g>
<path fill="#3D3D3D" d="M84.2,60.1H3.5c-1.7,0-3.1-1.4-3.1-3.1V2.4c0-1.1,0.9-2.1,2.1-2.1h81.8c0.3,0,0.6,0.1,0.9,0.2
	C86,1,86.3,2.1,86,3l-9.5,26.5c-0.2,0.4-0.2,0.9,0,1.4L86,57.5c0.3,0.9,0,2-0.8,2.4C84.9,60,84.6,60.1,84.2,60.1z"/>
<g>
	<line fill="#FFFFFF" stroke="#FCFCFC" stroke-width="2" stroke-miterlimit="10" x1="48.3" y1="35.1" x2="57.7" y2="47.7"/>
	<path fill="none" stroke="#FCFCFC" stroke-width="2" stroke-miterlimit="10" d="M25.1,34.6H49c0,0,7.5,0.1,7.5-11.3
		c0-10-7.5-9.4-7.5-9.4H25.1v33.8"/>
	<line fill="#FFFFFF" stroke="#FCFCFC" stroke-width="2" stroke-miterlimit="10" x1="20.9" y1="47.7" x2="28.8" y2="47.7"/>
	<line fill="#FFFFFF" stroke="#FCFCFC" stroke-width="2" stroke-miterlimit="10" x1="53.1" y1="47.7" x2="61" y2="47.7"/>
	<g>
		<polyline fill="none" stroke="#FCFCFC" stroke-width="2" stroke-miterlimit="10" points="39.3,43 39.3,23.2 47.9,23.2 47.9,27.2 
					"/>
		<polyline fill="none" stroke="#FCFCFC" stroke-width="2" stroke-miterlimit="10" points="39.3,23.2 30.2,23.2 30.2,27.2 		"/>
	</g>
	<line fill="none" stroke="#FCFCFC" stroke-width="2" stroke-miterlimit="10" x1="27.3" y1="13.9" x2="19.1" y2="13.9"/>
</g>
<g>
	<polygon fill="none" stroke="#232323" stroke-width="2" stroke-miterlimit="10" points="83.9,232.3 82.3,232.4 80.6,232.3 
		79,232.3 77.3,232.4 75.7,232.3 74,232.4 72.4,232.3 70.7,232.4 69.1,232.2 67.4,232.4 65.8,232.3 64.1,232.4 62.5,232.4 
		60.8,232.2 59.2,232.3 57.6,232.3 55.9,232.2 54.3,232.3 52.6,232.4 51,232.3 49.3,232.3 47.7,232.4 46,232.2 44.4,232.2 
		42.7,232.3 41.1,232.4 39.4,232.3 37.8,232.3 36.1,232.4 34.5,232.3 32.9,232.3 31.2,232.3 29.6,232.3 27.9,232.3 26.3,232.4 
		24.6,232.3 23,232.3 21.3,232.2 19.7,232.2 18,232.2 16.4,232.4 14.7,232.2 13.1,232.4 11.4,232.4 9.8,232.3 8.1,232.3 6.4,232.4 
		4.8,232.2 3.1,232.3 1.6,231.9 0.5,230.7 0,229.2 0,227.6 0.1,225.9 0,224.2 0,222.6 0.1,220.9 -0.1,219.3 0,217.6 0.1,216 
		0.1,214.3 0.1,212.7 0,211 0,209.4 0,207.7 -0.1,206.1 0.1,204.4 0,202.8 0.1,201.1 0,199.5 0.1,197.8 0,196.2 0.1,194.5 0,192.8 
		0.1,191.2 0,189.5 0,187.9 -0.1,186.2 0.1,184.6 0.1,182.9 0,181.3 0,179.6 0,177.9 0.1,176.3 0.1,174.6 0.7,173.2 2.1,172.6 
		3.7,172.6 5.4,172.6 7,172.6 8.6,172.6 10.3,172.6 11.9,172.6 13.5,172.6 15.2,172.5 16.8,172.6 18.4,172.6 20.1,172.5 21.7,172.5 
		23.3,172.5 25,172.6 26.6,172.7 28.2,172.5 29.9,172.6 31.5,172.6 33.2,172.5 34.8,172.6 36.4,172.5 38.1,172.6 39.7,172.6 
		41.3,172.6 43,172.6 44.6,172.5 46.2,172.6 47.9,172.5 49.5,172.5 51.1,172.5 52.8,172.6 54.4,172.7 56,172.5 57.7,172.6 
		59.3,172.5 61,172.5 62.6,172.6 64.2,172.5 65.9,172.5 67.5,172.6 69.1,172.5 70.8,172.6 72.4,172.6 74.1,172.6 75.7,172.6 
		77.3,172.6 79,172.5 80.6,172.6 82.3,172.5 83.9,172.6 84.9,172.7 85.8,173.8 85.6,175.2 85,176.7 84.6,178.3 83.9,179.9 
		83.4,181.5 82.9,183 82.3,184.5 81.7,186.1 81.3,187.7 80.6,189.2 80.1,190.8 79.4,192.3 79,193.9 78.3,195.5 77.9,197 77.3,198.6 
		76.8,200.2 76.2,201.8 76.2,203.1 76.7,204.7 77.2,206.3 77.9,207.8 78.4,209.4 78.9,210.9 79.4,212.5 80,214.1 80.7,215.6 
		81.2,217.1 81.8,218.7 82.4,220.2 82.9,221.8 83.4,223.4 83.9,225 84.5,226.5 85.1,228.1 85.6,229.7 85.6,231 84.9,232.1 	"/>
</g>
<g>
	<g>
		<g>
			<polyline fill="none" stroke="#232323" stroke-width="2" stroke-miterlimit="10" points="48,207.3 49,208.5 49.9,209.8 50.8,211 
				51.8,212.3 52.7,213.6 53.6,214.8 54.6,216.1 55.5,217.4 56.5,218.6 57.4,219.9 			"/>
		</g>
		<g>
			<polyline fill="none" stroke="#232323" stroke-width="2" stroke-miterlimit="10" points="24.7,206.7 26.3,206.7 27.9,206.7 
				29.5,206.7 31.1,206.8 32.7,206.8 34.3,206.8 35.9,206.8 37.5,206.8 39.1,206.9 40.6,206.7 42.2,206.8 43.8,206.8 45.4,206.9 
				47,206.8 48.6,206.9 50.3,206.5 51.8,205.8 53.1,204.8 54.1,203.5 54.9,202 55.5,200.5 55.8,198.8 56,197.2 56.2,195.5 56,193.8 
				55.8,192.1 55.2,190.5 54.5,189 53.3,187.8 51.9,186.8 50.3,186.3 48.6,186.1 47,186 45.4,186.1 43.8,186 42.3,186 40.7,186.1 
				39.1,186.1 37.5,186.1 35.9,186.1 34.3,186.2 32.7,186 31.1,186 29.5,186 27.9,186.1 26.3,186 24.7,186.1 24.8,187.7 24.7,189.3 
				24.8,190.9 24.7,192.5 24.7,194.1 24.8,195.7 24.8,197.3 24.7,198.9 24.7,200.6 24.7,202.2 24.7,203.8 24.6,205.4 24.8,207 
				24.7,208.6 24.8,210.2 24.8,211.8 24.7,213.4 24.8,215 24.8,216.7 24.7,218.3 24.7,219.9 			"/>
		</g>
		<g>
			<polyline fill="none" stroke="#232323" stroke-width="2" stroke-miterlimit="10" points="20.6,219.9 22.2,219.9 23.7,219.8 
				25.3,219.9 26.9,219.8 28.5,219.9 			"/>
		</g>
		<g>
			<polyline fill="none" stroke="#232323" stroke-width="2" stroke-miterlimit="10" points="52.8,219.9 54.4,220 56,219.9 
				57.5,219.9 59.1,219.8 60.7,219.9 			"/>
		</g>
		<g>
			<g>
				<polyline fill="none" stroke="#232323" stroke-width="2" stroke-miterlimit="10" points="38.9,215.2 39,213.6 39.1,211.9 
					39,210.3 38.9,208.6 39.1,207 38.9,205.3 39.1,203.7 39,202 39,200.4 38.9,198.7 38.9,197.1 38.9,195.3 40.7,195.3 42.4,195.3 
					44.1,195.4 45.8,195.4 47.5,195.4 47.5,197.4 47.4,199.4 				"/>
			</g>
			<g>
				<polyline fill="none" stroke="#232323" stroke-width="2" stroke-miterlimit="10" points="39,195.3 37.5,195.3 35.9,195.4 
					34.4,195.5 32.9,195.4 31.4,195.3 29.8,195.4 29.9,197.4 29.7,199.4 				"/>
			</g>
		</g>
		<g>
			<polyline fill="none" stroke="#232323" stroke-width="2" stroke-miterlimit="10" points="27,186 25.3,186.1 23.7,186 22,186 
				20.4,186.1 18.7,186.2 			"/>
		</g>
	</g>
</g>
<g>
	<polygon fill="#232323" points="83.9,307.2 82.3,307.2 80.6,307.2 79,307.2 77.3,307.2 75.7,307.1 74,307.2 72.4,307.2 70.7,307.3 
		69.1,307.1 67.4,307.2 65.8,307.2 64.1,307.2 62.5,307.2 60.8,307.1 59.2,307.2 57.6,307.1 55.9,307.1 54.3,307.2 52.6,307.2 
		51,307.2 49.3,307.1 47.7,307.3 46,307.1 44.4,307.1 42.7,307.1 41.1,307.2 39.4,307.1 37.8,307.1 36.1,307.2 34.5,307.1 
		32.9,307.2 31.2,307.2 29.6,307.2 27.9,307.2 26.3,307.2 24.6,307.2 23,307.1 21.3,307.1 19.7,307.1 18,307.1 16.4,307.2 
		14.7,307.1 13.1,307.3 11.4,307.2 9.8,307.1 8.1,307.2 6.4,307.3 4.8,307.1 3.1,307.2 1.6,306.8 0.5,305.6 0,304.1 0,302.4 
		0.1,300.8 0,299.1 0,297.5 0.1,295.8 -0.1,294.2 0,292.5 0.1,290.9 0.1,289.2 0.1,287.6 0,285.9 0,284.2 0,282.6 -0.1,280.9 
		0.1,279.3 0,277.6 0.1,276 0,274.3 0.1,272.7 0,271 0.1,269.4 0,267.7 0.1,266 0,264.4 0,262.7 -0.1,261.1 0.1,259.4 0.1,257.8 
		0,256.1 0,254.5 0,252.8 0.1,251.1 0.1,249.5 0.7,248.1 2.1,247.5 3.7,247.5 5.4,247.4 7,247.4 8.6,247.5 10.3,247.5 11.9,247.4 
		13.5,247.5 15.2,247.4 16.8,247.5 18.4,247.4 20.1,247.3 21.7,247.4 23.3,247.4 25,247.4 26.6,247.5 28.2,247.4 29.9,247.5 
		31.5,247.5 33.2,247.4 34.8,247.5 36.4,247.4 38.1,247.5 39.7,247.5 41.3,247.5 43,247.5 44.6,247.4 46.2,247.5 47.9,247.3 
		49.5,247.3 51.1,247.3 52.8,247.5 54.4,247.5 56,247.4 57.7,247.5 59.3,247.4 61,247.4 62.6,247.5 64.2,247.4 65.9,247.3 
		67.5,247.5 69.1,247.4 70.8,247.4 72.4,247.5 74.1,247.5 75.7,247.4 77.3,247.5 79,247.4 80.6,247.5 82.3,247.4 83.9,247.5 
		84.9,247.6 85.8,248.7 85.6,250.1 85,251.6 84.6,253.2 83.9,254.7 83.4,256.3 82.9,257.9 82.3,259.4 81.7,261 81.3,262.6 
		80.6,264.1 80.1,265.7 79.4,267.2 79,268.8 78.3,270.3 77.9,271.9 77.3,273.5 76.8,275.1 76.2,276.6 76.2,278 76.7,279.5 
		77.2,281.1 77.9,282.6 78.4,284.2 78.9,285.8 79.4,287.4 80,288.9 80.7,290.4 81.2,292 81.8,293.6 82.4,295.1 82.9,296.7 
		83.4,298.3 83.9,299.8 84.5,301.4 85.1,302.9 85.6,304.5 85.6,305.9 84.9,307 	"/>
</g>
<g>
	<g>
		<g>
			<polyline fill="#FFFFFF" points="48,282.1 49,283.4 49.9,284.6 50.8,285.9 51.8,287.1 52.7,288.4 53.6,289.7 54.6,291 
				55.5,292.3 56.5,293.5 57.4,294.8 			"/>
			<polyline fill="none" stroke="#FFFFFF" stroke-width="1.8287" stroke-miterlimit="10" points="48,282.1 49,283.4 49.9,284.6 
				50.8,285.9 51.8,287.1 52.7,288.4 53.6,289.7 54.6,291 55.5,292.3 56.5,293.5 57.4,294.8 			"/>
		</g>
		<g>
			<polyline fill="none" stroke="#FFFFFF" stroke-width="1.8287" stroke-miterlimit="10" points="24.7,281.6 26.3,281.6 27.9,281.6 
				29.5,281.6 31.1,281.6 32.7,281.6 34.3,281.6 35.9,281.7 37.5,281.7 39.1,281.8 40.6,281.6 42.2,281.7 43.8,281.6 45.4,281.7 
				47,281.7 48.6,281.7 50.3,281.4 51.8,280.7 53.1,279.7 54.1,278.4 54.9,276.9 55.5,275.3 55.8,273.7 56,272 56.2,270.4 56,268.7 
				55.8,267 55.2,265.4 54.5,263.8 53.3,262.7 51.9,261.7 50.3,261.2 48.6,261 47,260.9 45.4,261 43.8,260.9 42.3,260.9 40.7,260.9 
				39.1,261 37.5,260.9 35.9,260.9 34.3,261 32.7,260.9 31.1,260.9 29.5,260.9 27.9,261 26.3,260.9 24.7,260.9 24.8,262.5 
				24.7,264.2 24.8,265.8 24.7,267.4 24.7,269 24.8,270.6 24.8,272.2 24.7,273.8 24.7,275.4 24.7,277 24.7,278.6 24.6,280.2 
				24.8,281.8 24.7,283.5 24.8,285.1 24.8,286.7 24.7,288.3 24.8,289.9 24.8,291.5 24.7,293.1 24.7,294.8 			"/>
		</g>
		<g>
			<polyline fill="#FFFFFF" points="20.6,294.7 22.2,294.7 23.7,294.7 25.3,294.7 26.9,294.7 28.5,294.7 			"/>
			<polyline fill="none" stroke="#FFFFFF" stroke-width="1.8287" stroke-miterlimit="10" points="20.6,294.7 22.2,294.7 23.7,294.7 
				25.3,294.7 26.9,294.7 28.5,294.7 			"/>
		</g>
		<g>
			<polyline fill="#FFFFFF" points="52.8,294.7 54.4,294.9 56,294.7 57.5,294.7 59.1,294.7 60.7,294.7 			"/>
			<polyline fill="none" stroke="#FFFFFF" stroke-width="1.8287" stroke-miterlimit="10" points="52.8,294.7 54.4,294.9 56,294.7 
				57.5,294.7 59.1,294.7 60.7,294.7 			"/>
		</g>
		<g>
			<g>
				<polyline fill="none" stroke="#FFFFFF" stroke-width="1.8287" stroke-miterlimit="10" points="38.9,290.1 39,288.4 39.1,286.8 
					39,285.1 38.9,283.5 39.1,281.8 38.9,280.2 39.1,278.5 39,276.9 39,275.2 38.9,273.6 38.9,271.9 38.9,270.2 40.7,270.2 
					42.4,270.2 44.1,270.2 45.8,270.2 47.5,270.3 47.5,272.3 47.4,274.3 				"/>
			</g>
			<g>
				<polyline fill="none" stroke="#FFFFFF" stroke-width="1.8287" stroke-miterlimit="10" points="39,270.2 37.5,270.2 35.9,270.3 
					34.4,270.3 32.9,270.3 31.4,270.2 29.8,270.3 29.9,272.3 29.7,274.3 				"/>
			</g>
		</g>
		<g>
			<polyline fill="none" stroke="#FFFFFF" stroke-width="1.8287" stroke-miterlimit="10" points="27,260.9 25.3,261 23.7,260.9 
				22,260.9 20.4,261 18.7,261 			"/>
		</g>
	</g>
</g>
<g>
	<polygon fill="#232323" points="-264.5,308.5 -268.7,308.6 -272.9,308.5 -277.2,308.5 -281.4,308.5 -285.7,308.3 -289.9,308.6 
		-294.1,308.4 -298.4,308.6 -302.6,308.2 -306.8,308.6 -311.1,308.5 -315.3,308.6 -319.5,308.6 -323.8,308.2 -328,308.5 
		-332.3,308.4 -336.5,308.2 -340.7,308.4 -345,308.6 -349.2,308.4 -353.5,308.4 -357.7,308.6 -361.9,308.2 -366.2,308.3 
		-370.4,308.4 -374.7,308.6 -378.9,308.3 -383.2,308.4 -387.4,308.6 -391.6,308.3 -395.9,308.5 -400.1,308.4 -404.4,308.4 
		-408.6,308.5 -412.9,308.6 -417.1,308.4 -421.3,308.3 -425.6,308.2 -429.8,308.2 -434.1,308.2 -438.3,308.6 -442.6,308.3 
		-446.8,308.7 -451,308.6 -455.3,308.3 -459.5,308.5 -463.8,308.7 -468,308.2 -472.3,308.4 -476.4,307.5 -479.2,304.4 -480.4,300.5 
		-480.3,296.2 -480.1,292 -480.5,287.7 -480.5,283.4 -480.1,279.2 -480.5,274.9 -480.5,270.7 -480.1,266.4 -480.2,262.2 
		-480.1,257.9 -480.2,253.7 -480.5,249.4 -480.4,245.1 -480.5,240.9 -480.2,236.6 -480.4,232.4 -480.1,228.1 -480.3,223.9 
		-480.2,219.6 -480.4,215.4 -480.1,211.1 -480.3,206.8 -480.1,202.6 -480.2,198.3 -480.3,194.1 -480.5,189.8 -480.1,185.6 
		-480.1,181.3 -480.2,177 -480.4,172.8 -480.3,168.5 -480.1,164.2 -480.1,160 -478.6,156.4 -475,154.8 -470.8,154.8 -466.6,154.7 
		-462.4,154.8 -458.1,154.9 -453.9,154.8 -449.7,154.7 -445.5,154.8 -441.3,154.6 -437.1,154.8 -432.9,154.7 -428.7,154.5 
		-424.5,154.7 -420.3,154.7 -416.1,154.8 -411.9,154.9 -407.7,154.6 -403.5,154.9 -399.2,154.8 -395,154.7 -390.8,154.9 
		-386.6,154.6 -382.4,154.9 -378.2,154.9 -374,154.9 -369.8,154.9 -365.6,154.6 -361.4,154.9 -357.1,154.5 -352.9,154.5 
		-348.7,154.5 -344.5,154.8 -340.3,154.9 -336.1,154.6 -331.9,154.8 -327.7,154.6 -323.5,154.6 -319.2,154.9 -315,154.6 
		-310.8,154.5 -306.6,154.9 -302.4,154.6 -298.2,154.7 -294,154.8 -289.8,154.8 -285.5,154.7 -281.3,154.9 -277.1,154.5 
		-272.9,154.8 -268.7,154.5 -264.5,154.8 -262,155.1 -259.6,157.9 -260.1,161.5 -261.5,165.5 -262.7,169.6 -264.4,173.5 
		-265.7,177.6 -267.1,181.6 -268.7,185.6 -270.1,189.6 -271.3,193.7 -272.9,197.7 -274.3,201.7 -276,205.6 -277.2,209.7 
		-278.8,213.7 -280.1,217.7 -281.5,221.7 -282.8,225.8 -284.2,229.9 -284.3,233.3 -282.9,237.3 -281.7,241.5 -280,245.4 
		-278.7,249.4 -277.2,253.4 -276,257.5 -274.5,261.5 -272.8,265.4 -271.4,269.4 -269.9,273.4 -268.4,277.4 -267.2,281.5 
		-265.7,285.5 -264.4,289.6 -262.8,293.6 -261.3,297.6 -260,301.6 -260,305.1 -262,308 	"/>
</g>
<g>
	<g>
		<g>
			<polyline fill="#FFFFFF" points="-356.7,243.9 -354.6,247.3 -352.2,250.6 -349.5,253.7 -347.4,257.1 -344.7,260.2 -342.4,263.5 
				-340.1,266.9 -337.7,270.1 -335.1,273.3 -332.6,276.5 			"/>
			<polyline fill="none" stroke="#FFFFFF" stroke-width="6" stroke-miterlimit="10" points="-356.7,243.9 -354.6,247.3 
				-352.2,250.6 -349.5,253.7 -347.4,257.1 -344.7,260.2 -342.4,263.5 -340.1,266.9 -337.7,270.1 -335.1,273.3 -332.6,276.5 			"/>
		</g>
		<g>
			<polyline fill="none" stroke="#FFFFFF" stroke-width="6" stroke-miterlimit="10" points="-416.7,243.1 -412.6,242.9 
				-408.5,242.7 -404.4,242.9 -400.3,242.9 -396.2,242.8 -392.1,243 -388,243 -383.9,243 -379.8,242.6 -375.7,242.9 -371.7,243 
				-367.6,243 -363.5,242.8 -359.4,242.9 -355.3,243 -351,242.3 -347,240.5 -343.8,237.6 -340.8,234.5 -339,230.6 -337.5,226.5 
				-336.8,222.3 -336.3,218 -336,213.7 -336.3,209.4 -336.8,205 -338,200.8 -340,196.9 -343.2,193.8 -346.7,191.2 -350.9,189.9 
				-355.3,189.3 -359.4,189.7 -363.4,189.5 -367.5,189.2 -371.6,189.4 -375.7,189.5 -379.8,189.4 -383.9,189.7 -388,189.2 
				-392.1,189.7 -396.2,189.6 -400.3,189.3 -404.4,189.5 -408.5,189.2 -412.6,189.4 -416.7,189.5 -416.5,193.6 -416.5,197.8 
				-416.5,201.9 -416.6,206.1 -416.6,210.2 -416.7,214.3 -416.5,218.5 -416.7,222.6 -416.6,226.8 -416.9,230.9 -416.6,235 
				-416.6,239.2 -416.6,243.3 -416.5,247.5 -416.6,251.6 -416.9,255.8 -416.5,259.9 -416.8,264 -416.7,268.2 -416.6,272.3 
				-416.6,276.5 			"/>
		</g>
		<g>
			<polyline fill="#FFFFFF" points="-427.4,276.5 -423.3,276.5 -419.3,276.6 -415.2,276.6 -411.1,276.5 -407.1,276.7 			"/>
			<polyline fill="none" stroke="#FFFFFF" stroke-width="6" stroke-miterlimit="10" points="-427.4,276.5 -423.3,276.5 
				-419.3,276.6 -415.2,276.6 -411.1,276.5 -407.1,276.7 			"/>
		</g>
		<g>
			<polyline fill="#FFFFFF" points="-344.5,276.7 -340.4,276.4 -336.4,276.8 -332.3,276.4 -328.2,276.6 -324.2,276.5 			"/>
			<polyline fill="none" stroke="#FFFFFF" stroke-width="6" stroke-miterlimit="10" points="-344.5,276.7 -340.4,276.4 
				-336.4,276.8 -332.3,276.4 -328.2,276.6 -324.2,276.5 			"/>
		</g>
		<g>
			<g>
				<polyline fill="none" stroke="#FFFFFF" stroke-width="6" stroke-miterlimit="10" points="-380.2,264.4 -380.1,260.2 -379.8,256 
					-380.1,251.7 -379.8,247.5 -380.1,243.2 -380.2,239 -379.8,234.7 -380.1,230.5 -379.8,226.2 -379.8,222 -379.9,217.7 
					-380.1,213.3 -375.6,213.5 -371.2,213.5 -366.9,213.2 -362.5,213.6 -358.1,213.5 -357.9,218.7 -358.3,223.8 				"/>
			</g>
			<g>
				<polyline fill="none" stroke="#FFFFFF" stroke-width="6" stroke-miterlimit="10" points="-380,213.4 -383.9,213.6 -387.9,213.3 
					-391.8,213.3 -395.7,213.5 -399.7,213.4 -403.6,213.5 -403.5,218.7 -403.5,223.8 				"/>
			</g>
		</g>
		<g>
			<polyline fill="none" stroke="#FFFFFF" stroke-width="6" stroke-miterlimit="10" points="-411,189.3 -415.2,189.3 -419.4,189.3 
				-423.6,189.7 -427.9,189.2 -432.1,189.5 			"/>
		</g>
	</g>
</g>
<g>
	<g>
		<g>
			<polyline fill="none" stroke="#232323" stroke-width="4" stroke-miterlimit="10" points="-357.1,464 -354.5,467.2 -352.1,470.4 
				-349.7,473.7 -347.2,476.9 -344.9,480.2 -342.5,483.4 -340,486.7 -337.8,490.1 -335.2,493.2 -332.9,496.6 			"/>
		</g>
		<g>
			<polyline fill="none" stroke="#232323" stroke-width="4" stroke-miterlimit="10" points="-416.8,462.6 -412.7,462.6 
				-408.6,462.6 -404.6,462.6 -400.5,462.7 -396.4,462.7 -392.3,462.7 -388.2,462.9 -384.1,462.9 -380,463 -375.9,462.6 
				-371.8,462.9 -367.7,462.7 -363.6,462.9 -359.5,462.8 -355.4,463 -351.2,462.1 -347.3,460.2 -343.9,457.6 -341.2,454.3 
				-339.2,450.5 -337.7,446.5 -336.8,442.3 -336.3,438 -336,433.7 -336.5,429.4 -336.9,425 -338.5,420.9 -340.2,416.9 -343.4,413.9 
				-347,411.4 -351.1,410.1 -355.4,409.6 -359.5,409.3 -363.6,409.6 -367.7,409.4 -371.8,409.3 -375.9,409.4 -380,409.6 -384,409.4 
				-388.1,409.4 -392.2,409.7 -396.3,409.3 -400.4,409.3 -404.5,409.4 -408.6,409.6 -412.7,409.4 -416.9,409.4 -416.6,413.6 
				-416.9,417.7 -416.8,421.9 -416.9,426 -416.9,430.2 -416.7,434.3 -416.6,438.5 -416.8,442.6 -416.9,446.7 -417,450.9 -417,455 
				-417.1,459.2 -416.6,463.3 -417,467.4 -416.6,471.6 -416.6,475.7 -416.9,479.9 -416.8,484 -416.6,488.2 -417.1,492.3 
				-416.8,496.5 			"/>
		</g>
		<g>
			<polyline fill="none" stroke="#232323" stroke-width="4" stroke-miterlimit="10" points="-427.5,496.4 -423.5,496.4 
				-419.4,496.3 -415.4,496.4 -411.3,496.4 -407.2,496.4 			"/>
		</g>
		<g>
			<polyline fill="none" stroke="#232323" stroke-width="4" stroke-miterlimit="10" points="-344.7,496.4 -340.6,496.8 
				-336.5,496.4 -332.5,496.4 -328.4,496.3 -324.3,496.4 			"/>
		</g>
		<g>
			<g>
				<polyline fill="none" stroke="#232323" stroke-width="4" stroke-miterlimit="10" points="-380.4,484.4 -380.2,480.2 -380,475.9 
					-380.2,471.7 -380.3,467.4 -379.9,463.2 -380.3,459 -379.9,454.7 -380.3,450.5 -380.3,446.2 -380.4,442 -380.3,437.7 
					-380.3,433.3 -375.8,433.3 -371.4,433.3 -367,433.4 -362.6,433.4 -358.3,433.5 -358.3,438.6 -358.5,443.8 				"/>
			</g>
			<g>
				<polyline fill="none" stroke="#232323" stroke-width="4" stroke-miterlimit="10" points="-380.1,433.3 -384.1,433.3 -388,433.5 
					-391.9,433.7 -395.9,433.5 -399.8,433.3 -403.7,433.5 -403.6,438.6 -404,443.8 				"/>
			</g>
		</g>
		<g>
			<polyline fill="none" stroke="#232323" stroke-width="4" stroke-miterlimit="10" points="-411.1,409.2 -415.3,409.6 
				-419.6,409.3 -423.8,409.3 -428,409.5 -432.3,409.7 			"/>
		</g>
	</g>
</g>
</svg>
